<?xml version="1.0" encoding="utf-8"?>
<!-- Generator: Adobe Illustrator 16.0.0, SVG Export Plug-In . SVG Version: 6.00 Build 0)  -->
<!DOCTYPE svg PUBLIC "-//W3C//DTD SVG 1.1//EN" "http://www.w3.org/Graphics/SVG/1.1/DTD/svg11.dtd">
<svg version="1.1" id="Layer_1" xmlns="http://www.w3.org/2000/svg" xmlns:xlink="http://www.w3.org/1999/xlink" x="0px" y="0px"
	 width="1400px" height="980px" viewBox="0 0 1400 980" enable-background="new 0 0 1400 980" xml:space="preserve">
<g>
	<rect fill="#263B77" width="1400" height="980"/>
</g>
<g>
	<g>
		<polygon fill="#FCF8C8" points="205.554,175.49 212.819,168.038 204.988,174.438 204.604,164.649 203.775,174.194 
			196.388,168.038 203.694,175.33 192.98,176.262 203.291,176.262 196.388,184.489 204.179,176.863 204.604,187.877 
			205.232,176.944 212.819,184.489 205.878,176.262 216.232,176.262 		"/>
	</g>
</g>
<g>
	<g>
		<polygon fill="#FCF8C8" points="478.927,164.073 484.36,158.5 478.505,163.284 478.219,155.969 477.597,163.101 472.081,158.5 
			477.538,163.953 469.53,164.649 477.236,164.649 472.081,170.797 477.898,165.098 478.219,173.331 478.688,165.158 
			484.36,170.797 479.168,164.649 486.907,164.649 		"/>
	</g>
</g>
<g>
	<g>
		<polygon fill="#FCF8C8" points="86.884,388.826 92.318,383.253 86.463,388.037 86.177,380.722 85.555,387.854 80.039,383.253 
			85.495,388.706 77.488,389.402 85.194,389.402 80.039,395.55 85.856,389.851 86.177,398.083 86.646,389.911 92.318,395.55 
			87.126,389.402 94.865,389.402 		"/>
	</g>
</g>
<g>
	<g>
		<polygon fill="#FCF8C8" points="941.194,155.393 946.628,149.82 940.772,154.603 940.486,147.289 939.864,154.42 934.349,149.82 
			939.805,155.272 931.798,155.968 939.504,155.968 934.349,162.116 940.166,156.417 940.486,164.65 940.955,156.478 
			946.628,162.116 941.436,155.968 949.174,155.968 		"/>
	</g>
</g>
<g>
	<g>
		<polygon fill="#FCF8C8" points="1306.632,237.765 1312.066,232.192 1306.211,236.976 1305.925,229.661 1305.303,236.793 
			1299.786,232.192 1305.243,237.645 1297.236,238.341 1304.941,238.341 1299.786,244.489 1305.604,238.79 1305.925,247.022 
			1306.393,238.85 1312.066,244.489 1306.874,238.341 1314.612,238.341 		"/>
	</g>
</g>
<g>
	<g>
		<polygon fill="#FCF8C8" points="1071.979,276.365 1065.559,271.963 1071.272,276.915 1064.114,278.447 1071.248,277.841 
			1067.656,284.062 1072.097,277.754 1074.15,285.524 1072.834,277.932 1079.772,281.961 1073.164,277.203 1081.22,275.479 
			1073.088,276.415 1077.674,269.861 1072.504,276.028 1071.181,268.403 		"/>
	</g>
</g>
<g>
	<g>
		<polygon fill="#FCF8C8" points="1058.27,80.715 1051.85,76.313 1057.563,81.266 1050.405,82.797 1057.539,82.191 1053.948,88.413 
			1058.388,82.104 1060.442,89.875 1059.125,82.283 1066.063,86.311 1059.455,81.553 1067.512,79.83 1059.379,80.766 
			1063.965,74.212 1058.795,80.378 1057.473,72.754 		"/>
	</g>
</g>
<g>
	<g>
		<polygon fill="#FCF8C8" points="66.186,296.401 59.766,291.999 65.479,296.951 58.321,298.483 65.455,297.877 61.864,304.098 
			66.304,297.79 68.358,305.56 67.041,297.968 73.979,301.997 67.371,297.239 75.427,295.516 67.295,296.451 71.881,289.897 
			66.711,296.064 65.388,288.439 		"/>
	</g>
</g>
<g>
	<g>
		<polygon fill="#FCF8C8" points="251.576,384.441 245.156,380.04 250.87,384.992 243.711,386.523 250.845,385.917 247.254,392.139 
			251.694,385.831 253.748,393.601 252.431,386.009 259.37,390.038 252.761,385.279 260.817,383.556 252.685,384.492 
			257.271,377.938 252.101,384.105 250.778,376.48 		"/>
	</g>
</g>
<g>
	<g>
		<polygon fill="#FCF8C8" points="49.08,669.401 42.66,664.999 48.374,669.951 41.215,671.483 48.349,670.877 44.758,677.099 
			49.198,670.79 51.252,678.561 49.935,670.969 56.874,674.997 50.265,670.238 58.321,668.517 50.189,669.451 54.775,662.898 
			49.605,669.063 48.282,661.439 		"/>
	</g>
</g>
<g>
	<g>
		<polygon fill="#FCF8C8" points="121.148,549.769 114.728,545.367 120.442,550.319 113.284,551.851 120.417,551.245 
			116.826,557.466 121.266,551.158 123.32,558.928 122.003,551.336 128.942,555.365 122.333,550.606 130.389,548.884 
			122.257,549.819 126.844,543.266 121.673,549.432 120.351,541.807 		"/>
	</g>
</g>
<g>
	<g>
		<polygon fill="#FCF8C8" points="1362.567,403.861 1356.146,399.459 1361.861,404.411 1354.703,405.943 1361.836,405.337 
			1358.245,411.558 1362.686,405.25 1364.739,413.02 1363.422,405.428 1370.361,409.457 1363.752,404.698 1371.809,402.976 
			1363.676,403.911 1368.263,397.358 1363.092,403.523 1361.77,395.899 		"/>
	</g>
</g>
<g>
	<g>
		<polygon fill="#FCF8C8" points="1214.237,490.285 1207.816,485.883 1213.531,490.835 1206.373,492.367 1213.506,491.761 
			1209.915,497.982 1214.355,491.674 1216.409,499.443 1215.092,491.852 1222.031,495.881 1215.422,491.122 1223.479,489.4 
			1215.346,490.335 1219.933,483.781 1214.762,489.947 1213.439,482.323 		"/>
	</g>
</g>
<g>
	<g>
		<polygon fill="#FCF8C8" points="1362.567,570.763 1356.146,566.361 1361.861,571.313 1354.703,572.845 1361.836,572.238 
			1358.245,578.46 1362.686,572.151 1364.739,579.922 1363.422,572.33 1370.361,576.358 1363.752,571.601 1371.809,569.878 
			1363.676,570.812 1368.263,564.26 1363.092,570.426 1361.77,562.801 		"/>
	</g>
</g>
<g>
	<g>
		<polygon fill="#FCF8C8" points="994.302,329.232 987.882,324.83 993.596,329.782 986.438,331.314 993.571,330.708 989.98,336.929 
			994.42,330.621 996.475,338.391 995.157,330.799 1002.096,334.828 995.487,330.069 1003.543,328.347 995.411,329.282 
			999.997,322.729 994.827,328.895 993.505,321.27 		"/>
	</g>
</g>
<g>
	<g>
		<polygon fill="#FCF8C8" points="49.08,539.401 42.66,535 48.374,539.952 41.215,541.483 48.349,540.878 44.758,547.099 
			49.198,540.79 51.252,548.561 49.935,540.969 56.874,544.997 50.265,540.239 58.321,538.517 50.189,539.452 54.775,532.898 
			49.604,539.064 48.282,531.439 		"/>
	</g>
</g>
<g>
	<g>
		<polygon fill="#FCF8C8" points="99.499,193.044 108.736,183.571 98.776,191.708 98.291,179.263 97.234,191.397 87.85,183.571 
			97.133,192.838 83.518,194.029 96.617,194.029 87.85,204.481 97.749,194.789 98.291,208.787 99.085,194.897 108.736,204.481 
			99.908,194.029 113.069,194.029 		"/>
	</g>
</g>
<g>
	<g>
		<polygon fill="#FCF8C8" points="746.42,61.916 755.656,52.443 745.696,60.579 745.212,48.135 744.154,60.268 734.771,52.443 
			744.054,61.71 730.438,62.901 743.537,62.901 734.771,73.353 744.669,63.66 745.212,77.658 746.006,63.769 755.656,73.353 
			746.828,62.901 759.99,62.901 		"/>
	</g>
</g>
<g>
	<g>
		<polygon fill="#FCF8C8" points="417.242,111.15 426.126,102.037 416.545,109.864 416.08,97.893 415.062,109.564 406.036,102.037 
			414.966,110.952 401.869,112.097 414.469,112.097 406.036,122.151 415.557,112.828 416.08,126.293 416.843,112.932 
			426.126,122.151 417.634,112.097 430.295,112.097 		"/>
	</g>
</g>
<g>
	<g>
		<polygon fill="#FCF8C8" points="832.476,111.112 841.712,101.639 831.752,109.776 831.268,97.331 830.21,109.464 820.826,101.639 
			830.109,110.906 816.494,112.097 829.593,112.097 820.826,122.549 830.725,112.856 831.268,126.855 832.062,112.965 
			841.712,122.549 832.884,112.097 846.046,112.097 		"/>
	</g>
</g>
<g>
	<g>
		<polygon fill="#FCF8C8" points="692.133,245.555 701.369,236.081 691.409,244.218 690.926,231.773 689.867,243.907 
			680.483,236.081 689.767,245.349 676.151,246.539 689.25,246.539 680.483,256.991 690.382,247.299 690.926,261.297 
			691.719,247.407 701.369,256.991 692.541,246.539 705.703,246.539 		"/>
	</g>
</g>
<g>
	<g>
		<polygon fill="#FCF8C8" points="1298.441,61.916 1307.678,52.443 1297.718,60.579 1297.233,48.135 1296.176,60.268 
			1286.792,52.443 1296.075,61.71 1282.46,62.901 1295.559,62.901 1286.792,73.353 1296.69,63.66 1297.233,77.658 1298.027,63.769 
			1307.678,73.353 1298.85,62.901 1312.012,62.901 		"/>
	</g>
</g>
<g>
	<g>
		<polygon fill="#FCF8C8" points="307.184,47.154 316.42,37.681 306.46,45.817 305.977,33.373 304.919,45.506 295.535,37.681 
			304.818,46.948 291.203,48.139 304.302,48.139 295.535,58.591 305.434,48.898 305.977,62.896 306.77,49.006 316.42,58.591 
			307.592,48.139 320.754,48.139 		"/>
	</g>
</g>
<g>
	<g>
		<g>
			<path fill="#111628" d="M1197.425,780.184c0-35.076,1.176-70.147,0.881-105.22c-0.588-32.417-2.352-64.836-1.764-97.252
				c0.588-17.005,0.588-34.009,0-51.016c-0.293-6.906-0.588-13.285-0.588-20.194c0.883-47.295,2.646-95.125,2.941-142.419
				c0-10.629-1.178-21.789-0.884-32.95c0.208-6.022,0.125-12.044,0.475-18.067l0.409-6.753l-3.947,6.753l-3.985,519.72
				c0.998-5.396,2.021-10.665,2.934-15.937C1195.66,804.628,1197.13,792.405,1197.425,780.184z"/>
		</g>
		<g>
			<path fill="#171E33" d="M1208.306,833.856l-5.783-520.79l-3.627-6.753l-0.409,6.753c-0.35,6.022-0.267,12.045-0.475,18.067
				c-0.294,11.161,0.884,22.321,0.884,32.95c-0.295,47.294-2.059,95.124-2.941,142.419c0,6.909,0.295,13.288,0.588,20.194
				c0.588,17.007,0.588,34.011,0,51.016c-0.588,32.416,1.176,64.835,1.764,97.252c0.295,35.072-0.881,70.144-0.881,105.22
				c-0.295,12.222-1.765,24.444-3.528,36.666c-0.912,5.271-1.936,10.54-2.934,15.937l-0.01,1.07H1208.306z"/>
		</g>
		<g>
			<polygon fill="#111628" points="1193.147,547.934 1189.484,562.834 1190.953,565.489 1194.189,556.713 			"/>
		</g>
		<g>
			<polygon fill="#111628" points="1195.5,459.109 1191.837,474.006 1193.307,476.662 1196.542,467.886 			"/>
		</g>
		<g>
			<polygon fill="#171E33" points="1203.781,491.152 1207.442,506.05 1205.974,508.707 1202.737,499.931 			"/>
		</g>
		<g>
			<polygon fill="#1A2333" points="1192.544,664.573 1186.762,685 1189.083,688.643 1194.189,676.605 			"/>
		</g>
		<g>
			<polygon fill="#263148" points="1206.516,729.181 1211.52,746.856 1209.512,750.009 1205.091,739.597 			"/>
		</g>
	</g>
	<g>
		<g>
			<polygon fill="#171E33" points="1200.921,593.926 1209.91,603.985 1209.91,606.333 1200.938,597.263 			"/>
		</g>
		<g>
			<path fill="#FFFEF5" d="M1244.817,636.442c10.305,6.342,23.6,3.109,36.273,3.855c0.856-1.81-0.093-3.855-0.093-3.855
				s-30.689,0.804-45.912-8.871c-7.719-4.91-14.104-11.07-18.527-15.95C1221.934,623.215,1234.129,630.208,1244.817,636.442z"/>
		</g>
		<g>
			<path fill="#171E33" d="M1244.817,636.442c-10.688-6.234-22.884-13.228-28.259-24.821c-4.299-4.744-6.745-8.282-6.745-8.282
				s-0.961,0.925-0.979,3.774c-0.021,3.73,1.116,10.127,3.491,15.628c4.188,9.696,6.949,17.468,11.449,20.116
				c4.889,2.875,4.469,0.361,3.91-3.593c-0.558-3.951,0.279-6.464,3.632-1.798c0,0,8.873,10.983,14.688,13.729
				c6.199,2.925,9.157,2.194,9.935,0.041c0.598-1.65-3.281-4.578-4.097-8.018c0,0,3.119-2.637,18.077-0.537
				c7.549,1.06,10.297-0.54,11.171-2.384C1268.417,639.552,1255.122,642.784,1244.817,636.442z"/>
		</g>
	</g>
	<g>
		<g>
			<polygon fill="#171E33" points="1199.847,537.031 1216.174,550.091 1216.777,553.682 1200.733,542.125 			"/>
		</g>
		<g>
			<path fill="#171E33" d="M1286.785,585.688c-1.004-0.285-2.008-0.574-3.02-0.879c-39.469-11.885-68.09-34.915-68.09-34.915
				s-2.015,2.104-1.161,7.415c1.117,6.952,5.841,18.397,13.249,27.678c13.066,16.365,22.105,29.713,33.709,32.831
				c12.601,3.38,10.811-1.134,8.236-8.263c-2.573-7.127-1.354-12.146,8.13-4.806c0,0,24.682,16.87,39.463,19.638
				c15.758,2.951,22.609,0.396,23.799-3.922c0.912-3.319-9.287-7.202-12.321-13.28c0,0-0.844-5.015,8.357-1.408
				c8.935,3.504,19.555,1.146,25.435-3.391c-2.944-0.297-5.888-0.896-8.832-1.633
				C1330.276,596.408,1305.383,598.521,1286.785,585.688z"/>
		</g>
		<g>
			<path fill="#FFFEF5" d="M1356.401,593.6c0,0-31.491,2.929-69.616-7.912c18.598,12.834,43.491,10.721,66.954,15.065
				c2.944,0.736,5.888,1.336,8.832,1.633c0.175-0.136,0.36-0.266,0.526-0.403C1365.201,600.227,1368.352,593.258,1356.401,593.6z"/>
		</g>
	</g>
	<g>
		<g>
			<polygon fill="#171E33" points="1204.741,490.883 1220.101,503.168 1220.67,506.548 1205.575,495.674 			"/>
		</g>
		<g>
			<path fill="#FFFEF5" d="M1352.021,544.1c0,0-31.202,2.909-68.334-8.27c-6.083-1.831-11.885-3.947-17.346-6.2
				c19.827,27.088,61.85,16.899,91.596,20.737c0.46,0,1.041-0.026,1.686-0.085C1360.916,547.756,1360.76,543.85,1352.021,544.1z"/>
		</g>
		<g>
			<path fill="#171E33" d="M1266.342,529.63c-27.876-11.501-46.711-26.646-46.711-26.646s-1.895,1.979-1.091,6.976
				c1.053,6.54,5.496,17.308,12.466,26.039c12.291,15.395,20.796,27.953,31.711,30.886c11.855,3.179,10.17-1.066,7.749-7.775
				c-2.423-6.704-1.275-11.425,7.646-4.519c0,0,23.221,15.869,37.126,18.475c14.825,2.773,21.271,0.371,22.39-3.69
				c0.858-3.124-8.737-6.775-11.592-12.494c0,0-0.794-4.719,7.864-1.324c8.655,3.394,19.006,0.948,24.423-3.569
				c0.44-0.368,0.929-0.979,1.3-1.704c-0.645,0.059-1.226,0.085-1.686,0.085C1328.191,546.529,1286.169,556.718,1266.342,529.63z"/>
		</g>
	</g>
	<g>
		<g>
			<polygon fill="#171E33" points="1199.436,425.8 1213.768,437.263 1214.298,440.417 1200.214,430.272 			"/>
		</g>
		<g>
			<path fill="#FFFEF5" d="M1336.855,475.455c0,0-29.113,2.714-63.76-7.716c-14.297-4.306-26.965-10.276-36.923-15.806
				c26.394,31.406,69.801,29.088,108.143,26.164C1343.745,476.565,1341.736,475.314,1336.855,475.455z"/>
		</g>
		<g>
			<path fill="#171E33" d="M1236.173,451.934c-14.171-7.869-22.844-14.843-22.844-14.843s-1.768,1.847-1.018,6.509
				c0.982,6.104,5.127,16.15,11.629,24.294c11.47,14.367,19.406,26.083,29.591,28.818c11.059,2.967,9.487-0.993,7.229-7.253
				c-2.259-6.255-1.189-10.659,7.135-4.215c0,0,21.666,14.807,34.64,17.236c13.834,2.59,19.848,0.348,20.89-3.442
				c0.802-2.914-8.151-6.321-10.814-11.658c0,0-0.74-4.402,7.336-1.234c8.077,3.167,17.736,0.883,22.789-3.332
				c0.987-0.823,2.235-2.956,1.581-4.716C1305.974,481.021,1262.566,483.34,1236.173,451.934z"/>
		</g>
	</g>
	<g>
		<g>
			<polygon fill="#111628" points="1198.945,573.461 1187.524,586.238 1187.524,589.227 1198.922,577.699 			"/>
		</g>
		<g>
			<path fill="#EAE8DA" d="M1155.594,617.548c3.148-3.149,9.447,4.199,13.646-1.05c4.341-7.234,8.679-14.468,10.271-22.389
				c-7.18,6.483-18.795,15.742-33.284,22.905c-10.185,5.035-19.944,8.283-27.924,10.366
				C1131.472,628.239,1144.177,627.62,1155.594,617.548z"/>
		</g>
		<g>
			<path fill="#111628" d="M1187.524,586.238c0,0-2.87,3.226-8.014,7.871c-1.593,7.921-5.931,15.154-10.271,22.389
				c-4.198,5.249-10.497-2.1-13.646,1.05c-11.417,10.072-24.122,10.691-37.291,9.833c-11.508,3.002-19.309,3.579-19.309,3.579
				c-7.97,1.109-5.102,5.383-3.508,6.31c4.356,2.548,11.95,3.049,17.654-0.38c5.705-3.421,5.705,0,5.705,0
				c-1.334,4.38-7.671,8.094-6.695,10.195c1.271,2.731,6.103,3.663,16.235-0.056c9.5-3.486,24-17.438,24-17.438
				c5.477-5.933,6.845-2.739,5.932,2.28c-0.913,5.019-1.596,8.215,6.39,4.563c7.354-3.357,11.865-13.231,18.709-25.554
				c3.882-6.985,5.74-15.108,5.704-19.852C1189.094,587.411,1187.524,586.238,1187.524,586.238z"/>
		</g>
	</g>
	<g>
		<g>
			<polygon fill="#111628" points="1195.983,528.112 1178.827,541.838 1178.191,545.611 1195.054,533.468 			"/>
		</g>
		<g>
			<path fill="#EAE8DA" d="M1093.661,588.156c17.845-8.397,36.739-17.845,56.684-9.447c4.384-11.396,11.694-20.598,18.878-30.047
				c-10.228,6.722-27.859,16.891-49.147,23.3c-16.817,5.064-32.3,6.975-43.673,7.613c1.215,0.355,2.422,0.757,3.613,1.233
				C1084.214,582.908,1087.363,590.256,1093.661,588.156z"/>
		</g>
		<g>
			<path fill="#111628" d="M1178.827,541.838c0,0-3.471,2.792-9.604,6.824c-7.184,9.449-14.494,18.65-18.878,30.047
				c-19.944-8.397-38.839,1.05-56.684,9.447c-6.298,2.1-9.447-5.248-13.646-7.348c-1.191-0.477-2.398-0.878-3.613-1.233
				c-11.662,0.655-19.004-0.025-19.004-0.025c-10.312-0.295-7.594,5.718-5.779,7.231c4.968,4.143,14.462,6.389,22.402,3.275
				c7.938-3.113,7.21,1.213,7.21,1.213c-2.617,5.246-11.418,8.598-10.63,11.46c1.025,3.725,6.938,5.931,20.534,3.387
				c12.754-2.393,34.052-16.945,34.052-16.945c8.184-6.334,9.235-2.007,7.015,4.146s-3.767,10.043,7.105,7.126
				c10.014-2.685,17.814-14.207,29.087-28.327c6.393-8.005,10.469-17.882,11.432-23.881
				C1180.564,543.65,1178.827,541.838,1178.827,541.838z"/>
		</g>
	</g>
	<g>
		<path fill="#FFFEF5" d="M1273.962,421.255c15.745,4.199,32.541-7.348,48.286,1.049c2.377,1.783,5.091,1.546,7.951,0.815
			c1.803-1.537,4.43-7.455-5.766-7.163c0,0-28.432,2.651-62.264-7.536c-12.12-3.649-23.036-8.524-32.069-13.279
			c6.124,5.278,13.837,6.584,19.719,12.467C1255.067,414.957,1265.564,418.105,1273.962,421.255z"/>
	</g>
	<g>
		<path fill="#171E33" d="M1322.248,422.304c-15.745-8.397-32.541,3.149-48.286-1.049c-8.397-3.149-18.895-6.298-24.143-13.646
			c-5.882-5.882-13.595-7.189-19.719-12.467c-16.184-8.518-26.299-16.649-26.299-16.649s-1.724,1.801-0.993,6.355
			c0.959,5.961,5.007,15.772,11.357,23.725c11.199,14.027,18.95,25.473,28.896,28.14c10.801,2.9,9.266-0.968,7.06-7.079
			c-2.208-6.112-1.162-10.414,6.968-4.118c0,0,21.159,14.458,33.83,16.83c13.505,2.53,19.38,0.342,20.397-3.361
			c0.783-2.845-7.961-6.171-10.561-11.385c0,0-0.725-4.299,7.164-1.206c7.886,3.093,17.319,0.862,22.254-3.252
			c0.009-0.007,0.017-0.016,0.025-0.022C1327.339,423.85,1324.625,424.087,1322.248,422.304z"/>
	</g>
	<g>
		<path fill="#171E33" d="M1241.422,367.72c-5.699-3.561-13.81-7.125-19.094-11.998c-13.416-6.329-22.129-13.333-22.129-13.333
			s-1.121,1.171-0.646,4.13c0.625,3.874,3.256,10.249,7.384,15.418c7.277,9.117,12.315,16.555,18.778,18.289
			c7.018,1.883,6.021-0.63,4.588-4.603c-1.435-3.971-0.757-6.765,4.527-2.675c0,0,13.752,9.398,21.985,10.938
			c8.776,1.644,12.595,0.223,13.257-2.183c0.508-1.85-5.173-4.012-6.862-7.399c0,0-0.471-2.794,4.656-0.784
			c4.903,1.926,10.724,0.676,14.026-1.78c-3.606-0.521-7.196-1.366-11.08-1.921C1260.316,367.72,1249.819,372.969,1241.422,367.72z"
			/>
	</g>
	<g>
		<path fill="#FFFEF5" d="M1278.597,366.736c0,0-18.478,1.724-40.465-4.896c-5.74-1.729-11.063-3.881-15.804-6.117
			c5.284,4.873,13.395,8.437,19.094,11.998c8.397,5.249,18.895,0,29.391,2.099c3.884,0.555,7.474,1.399,11.08,1.921
			c0.147-0.11,0.297-0.219,0.435-0.334C1283.498,370.43,1285.254,366.547,1278.597,366.736z"/>
	</g>
	<g>
		<path fill="#171E33" d="M1211.922,320.537c-7.243-3.843-11.755-7.47-11.755-7.47s-0.789,0.824-0.454,2.906
			c0.438,2.725,2.289,7.21,5.192,10.846c5.121,6.414,8.665,11.646,13.213,12.866c4.936,1.325,4.235-0.443,3.227-3.237
			c-1.01-2.793-0.532-4.76,3.186-1.883c0,0,9.673,6.612,15.466,7.695c6.175,1.156,8.86,0.156,9.327-1.537
			c0.356-1.301-3.64-2.822-4.828-5.205c0,0-0.331-1.965,3.274-0.552c2.832,1.112,6.085,0.71,8.45-0.421
			C1241.468,330.253,1219.847,332.781,1211.922,320.537z"/>
	</g>
	<g>
		<path fill="#FFFEF5" d="M1255.319,330.194c0,0-13,1.213-28.467-3.445c-5.661-1.705-10.75-3.994-14.931-6.212
			c20.824,17.005,29.546,9.717,44.298,14.009c0.646-0.309,1.239-0.662,1.724-1.065
			C1258.768,332.792,1260.002,330.062,1255.319,330.194z"/>
	</g>
	<g>
		<path fill="#111628" d="M1197.716,348.589c0,0-5.751,4.623-15.152,9.855c-6.37,18.058-31.764,19.773-46.914,19.773
			c-4.781-0.684-15.342-1.366-25.607-1.76c-0.123,1.068,0.577,2.218,1.154,2.699c3.38,2.818,9.837,4.346,15.236,2.228
			c5.4-2.118,4.903,0.826,4.903,0.826c-1.777,3.568-7.765,5.847-7.229,7.793c0.699,2.536,4.719,4.033,13.967,2.304
			c8.676-1.625,23.16-11.525,23.16-11.525c5.566-4.307,6.281-1.363,4.77,2.822c-1.51,4.184-2.561,6.831,4.834,4.848
			c6.811-1.828,12.116-9.664,19.784-19.269c4.348-5.444,7.12-12.163,7.774-16.242
			C1198.898,349.822,1197.716,348.589,1197.716,348.589z"/>
	</g>
	<g>
		<path fill="#EAE8DA" d="M1182.563,358.444c-6.677,3.715-15.189,7.738-24.806,10.634c-23.166,6.975-42.631,5.159-42.631,5.159
			c-3.733-0.107-4.943,1.003-5.085,2.22c10.266,0.394,20.826,1.076,25.607,1.76C1150.8,378.217,1176.193,376.502,1182.563,358.444z"
			/>
	</g>
	<g>
		<path fill="#EAE8DA" d="M1150.345,337.279c12.597,0,29.392,0,38.839-11.546c2.08-1.56,3.385-4.151,3.919-7.134
			c-5.477,3.5-14.235,8.366-24.677,11.511c-17.857,5.377-32.861,3.977-32.861,3.977c-4.424-0.127-4.273,1.961-3.551,3.159
			C1138.365,336.933,1144.881,337.279,1150.345,337.279z"/>
	</g>
	<g>
		<path fill="#111628" d="M1199.228,314.316c0,0-2.236,1.797-6.125,4.282c-0.534,2.982-1.839,5.574-3.919,7.134
			c-9.447,11.546-26.242,11.546-38.839,11.546c-5.464,0-11.979-0.346-18.331-0.033c0.16,0.266,0.348,0.489,0.521,0.633
			c2.604,2.172,7.582,3.35,11.744,1.717c4.163-1.632,3.779,0.636,3.779,0.636c-1.37,2.75-5.985,4.507-5.572,6.007
			c0.538,1.956,3.638,3.11,10.767,1.776c6.687-1.252,17.853-8.884,17.853-8.884c4.291-3.32,4.841-1.051,3.677,2.175
			c-1.163,3.225-1.974,5.266,3.727,3.737c5.249-1.409,9.339-7.449,15.249-14.853c3.352-4.197,5.49-9.375,5.994-12.521
			C1200.139,315.267,1199.228,314.316,1199.228,314.316z"/>
	</g>
	<g>
		<path fill="#EAE8DA" d="M1173.957,449.807c-10.471,5.91-24.042,12.419-39.443,17.057c-35.762,10.768-65.812,7.966-65.812,7.966
			c-7.67-0.219-8.474,2.884-7.614,5.278c27.117-2.833,53.569-5.753,80.86-9.518C1155.615,469.679,1170.856,464.807,1173.957,449.807
			z"/>
	</g>
	<g>
		<path fill="#111628" d="M1196.212,435.229c0,0-8.415,6.765-22.255,14.578c-3.101,15-18.342,19.872-32.01,20.783
			c-27.291,3.764-53.743,6.684-80.86,9.518c0.354,0.987,0.989,1.854,1.545,2.317c5.217,4.351,15.187,6.708,23.523,3.439
			c8.339-3.269,7.571,1.275,7.571,1.275c-2.747,5.51-11.988,9.027-11.162,12.032c1.076,3.914,7.285,6.229,21.564,3.556
			c13.392-2.508,35.755-17.793,35.755-17.793c8.595-6.652,9.698-2.104,7.367,4.354c-2.333,6.46-3.954,10.548,7.462,7.485
			c10.515-2.821,18.706-14.919,30.544-29.746c6.713-8.408,10.993-18.779,12.006-25.079
			C1198.036,437.135,1196.212,435.229,1196.212,435.229z"/>
	</g>
	<g>
		<path fill="#EAE8DA" d="M1127.252,418.105c9.447-3.149,22.043-2.099,31.49-8.397c2.646-1.984,4.456-5.22,5.172-8.655
			c-6.105,2.766-12.827,5.396-20.009,7.559c-31.285,9.419-57.576,6.968-57.576,6.968c-4.595-0.131-6.369,1.102-6.793,2.564
			C1095.441,418.533,1111.347,422.082,1127.252,418.105z"/>
	</g>
	<g>
		<path fill="#111628" d="M1197.88,380.937c0,0-13.476,10.834-33.966,20.117c-0.716,3.435-2.525,6.67-5.172,8.655
			c-9.447,6.298-22.043,5.249-31.49,8.397c-15.905,3.977-31.811,0.427-47.716,0.039c-0.449,1.553,0.625,3.364,1.482,4.08
			c4.565,3.806,13.288,5.869,20.581,3.009c7.293-2.86,6.624,1.114,6.624,1.114c-2.404,4.822-10.489,7.896-9.765,10.527
			c0.939,3.425,6.372,5.45,18.862,3.11c11.716-2.194,31.282-15.565,31.282-15.565c7.517-5.819,8.481-1.841,6.442,3.81
			c-2.04,5.652-3.458,9.228,6.529,6.548c9.198-2.468,16.362-13.051,26.72-26.022c5.871-7.355,9.615-16.428,10.502-21.94
			C1199.474,382.604,1197.88,380.937,1197.88,380.937z"/>
	</g>
	<g>
		<path fill="#EAE8DA" d="M1085.264,533.572c28.456-3.794,66.333-7.594,83.439-32.299c-11.659,6.359-26.217,13.096-42.556,18.016
			c-41.474,12.487-76.327,9.237-76.327,9.237c-12.558-0.358-9.248,6.966-7.039,8.808c0.575,0.48,1.214,0.93,1.883,1.365
			c7.234-0.663,14.47-1.51,21.705-5.127C1070.568,531.473,1078.966,533.572,1085.264,533.572z"/>
	</g>
	<g>
		<path fill="#111628" d="M1197.701,482.601c0,0-11.061,8.89-28.998,18.672c-17.106,24.705-54.983,28.505-83.439,32.299
			c-6.298,0-14.695-2.1-18.895,0c-7.235,3.617-14.471,4.464-21.705,5.127c6.363,4.134,16.649,6.056,25.399,2.625
			c9.669-3.792,8.783,1.476,8.783,1.476c-3.189,6.392-13.906,10.47-12.946,13.956c1.248,4.539,8.448,7.224,25.007,4.123
			c15.532-2.908,41.469-20.636,41.469-20.636c9.966-7.712,11.245-2.439,8.541,5.051c-2.704,7.494-4.585,12.233,8.656,8.681
			c12.193-3.272,21.692-17.303,35.422-34.498c7.783-9.75,12.747-21.777,13.924-29.085
			C1199.814,484.811,1197.701,482.601,1197.701,482.601z"/>
	</g>
</g>
<g>
	<g>
		<g>
			<path fill="#111628" d="M246.273,790.847c0-35.077-1.176-70.147-0.881-105.22c0.588-32.418,2.352-64.836,1.764-97.253
				c-0.588-17.005-0.588-34.009,0-51.015c0.293-6.906,0.587-13.285,0.587-20.195c-0.882-47.294-2.646-95.124-2.941-142.418
				c0-10.629,1.178-21.789,0.884-32.95c-0.208-6.022-0.125-12.045-0.475-18.067l-0.409-6.753l3.948,6.753l3.984,519.719
				c-0.998-5.396-2.021-10.665-2.933-15.937C248.038,815.291,246.568,803.067,246.273,790.847z"/>
		</g>
		<g>
			<path fill="#171E33" d="M235.392,844.519l5.784-520.789l3.627-6.753l0.409,6.753c0.349,6.022,0.266,12.044,0.475,18.067
				c0.294,11.161-0.884,22.321-0.884,32.95c0.295,47.294,2.059,95.124,2.941,142.418c0,6.91-0.294,13.289-0.587,20.195
				c-0.588,17.006-0.588,34.01,0,51.015c0.587,32.417-1.176,64.835-1.764,97.253c-0.294,35.072,0.881,70.143,0.881,105.22
				c0.294,12.221,1.765,24.444,3.529,36.665c0.911,5.271,1.935,10.54,2.933,15.937l0.01,1.07H235.392z"/>
		</g>
		<g>
			<polygon fill="#111628" points="250.55,558.597 254.214,573.495 252.745,576.152 249.509,567.376 			"/>
		</g>
		<g>
			<polygon fill="#111628" points="248.198,469.772 251.861,484.669 250.392,487.325 247.156,478.549 			"/>
		</g>
		<g>
			<polygon fill="#171E33" points="239.917,501.814 236.255,516.713 237.725,519.371 240.96,510.594 			"/>
		</g>
		<g>
			<polygon fill="#1A2333" points="251.154,675.236 256.937,695.662 254.615,699.306 249.509,687.269 			"/>
		</g>
		<g>
			<polygon fill="#263148" points="237.182,739.844 232.179,757.519 234.187,760.672 238.607,750.259 			"/>
		</g>
	</g>
	<g>
		<g>
			<polygon fill="#171E33" points="242.777,604.589 233.788,614.646 233.788,616.996 242.761,607.925 			"/>
		</g>
		<g>
			<path fill="#FFFEF5" d="M198.88,647.105c-10.304,6.342-23.6,3.108-36.273,3.854c-0.857-1.809,0.092-3.854,0.092-3.854
				s30.69,0.804,45.912-8.871c7.719-4.91,14.104-11.071,18.527-15.95C221.765,633.878,209.569,640.871,198.88,647.105z"/>
		</g>
		<g>
			<path fill="#171E33" d="M198.88,647.105c10.689-6.234,22.884-13.228,28.259-24.821c4.299-4.744,6.745-8.283,6.745-8.283
				s0.961,0.925,0.979,3.774c0.021,3.731-1.116,10.128-3.491,15.629c-4.188,9.695-6.949,17.468-11.449,20.116
				c-4.889,2.874-4.469,0.361-3.91-3.594c0.558-3.951-0.28-6.465-3.632-1.798c0,0-8.873,10.984-14.688,13.729
				c-6.2,2.924-9.157,2.194-9.935,0.041c-0.598-1.65,3.281-4.578,4.097-8.018c0,0-3.119-2.637-18.078-0.537
				c-7.549,1.06-10.297-0.54-11.17-2.385C175.281,650.214,188.576,653.447,198.88,647.105z"/>
		</g>
	</g>
	<g>
		<g>
			<polygon fill="#171E33" points="243.852,547.694 227.525,560.754 226.921,564.344 242.965,552.787 			"/>
		</g>
		<g>
			<path fill="#171E33" d="M156.913,596.349c1.003-0.284,2.008-0.573,3.02-0.877c39.468-11.885,68.09-34.915,68.09-34.915
				s2.014,2.104,1.16,7.414c-1.117,6.952-5.841,18.398-13.248,27.677c-13.067,16.367-22.106,29.714-33.709,32.832
				c-12.6,3.381-10.811-1.134-8.236-8.262c2.573-7.127,1.354-12.146-8.13-4.806c0,0-24.682,16.868-39.463,19.637
				c-15.758,2.952-22.609,0.396-23.798-3.923c-0.913-3.319,9.287-7.2,12.321-13.278c0,0,0.844-5.016-8.357-1.409
				c-8.935,3.504-19.555,1.146-25.435-3.391c2.944-0.297,5.888-0.896,8.832-1.632C113.421,607.071,138.315,609.184,156.913,596.349z
				"/>
		</g>
		<g>
			<path fill="#FFFEF5" d="M87.297,604.263c0,0,31.491,2.928,69.616-7.914c-18.598,12.835-43.492,10.723-66.954,15.067
				c-2.944,0.736-5.888,1.335-8.832,1.632c-0.175-0.136-0.361-0.265-0.527-0.404C78.497,610.889,75.346,603.92,87.297,604.263z"/>
		</g>
	</g>
	<g>
		<g>
			<polygon fill="#171E33" points="238.957,501.546 223.598,513.831 223.029,517.211 238.123,506.338 			"/>
		</g>
		<g>
			<path fill="#FFFEF5" d="M91.676,554.763c0,0,31.203,2.909,68.334-8.271c6.083-1.83,11.884-3.946,17.346-6.199
				c-19.827,27.087-61.85,16.899-91.596,20.737c-0.459,0-1.041-0.026-1.685-0.086C82.782,558.418,82.938,554.513,91.676,554.763z"/>
		</g>
		<g>
			<path fill="#171E33" d="M177.356,540.293c27.875-11.501,46.71-26.646,46.71-26.646s1.895,1.979,1.091,6.976
				c-1.053,6.54-5.496,17.307-12.465,26.038c-12.291,15.396-20.796,27.953-31.711,30.887c-11.855,3.178-10.17-1.066-7.749-7.776
				c2.422-6.704,1.275-11.424-7.647-4.519c0,0-23.22,15.87-37.126,18.474c-14.825,2.774-21.271,0.371-22.389-3.69
				c-0.859-3.122,8.737-6.773,11.592-12.493c0,0,0.793-4.718-7.864-1.324c-8.655,3.395-19.006,0.949-24.423-3.569
				c-0.441-0.367-0.929-0.979-1.3-1.704c0.645,0.06,1.226,0.086,1.685,0.086C115.506,557.192,157.529,567.38,177.356,540.293z"/>
		</g>
	</g>
	<g>
		<g>
			<polygon fill="#171E33" points="244.263,436.463 229.931,447.926 229.4,451.08 243.484,440.935 			"/>
		</g>
		<g>
			<path fill="#FFFEF5" d="M106.842,486.118c0,0,29.114,2.714,63.76-7.716c14.297-4.306,26.965-10.276,36.923-15.806
				c-26.393,31.407-69.8,29.088-108.142,26.164C99.953,487.228,101.962,485.978,106.842,486.118z"/>
		</g>
		<g>
			<path fill="#171E33" d="M207.525,462.597c14.171-7.869,22.844-14.843,22.844-14.843s1.768,1.847,1.017,6.509
				c-0.982,6.104-5.126,16.15-11.628,24.294c-11.47,14.367-19.406,26.083-29.591,28.818c-11.059,2.967-9.487-0.992-7.229-7.254
				c2.259-6.255,1.19-10.659-7.135-4.215c0,0-21.667,14.807-34.64,17.236c-13.833,2.59-19.847,0.348-20.889-3.442
				c-0.802-2.915,8.151-6.321,10.814-11.657c0,0,0.74-4.402-7.336-1.234c-8.077,3.166-17.736,0.883-22.789-3.332
				c-0.987-0.824-2.234-2.956-1.581-4.716C137.725,491.685,181.132,494.004,207.525,462.597z"/>
		</g>
	</g>
	<g>
		<g>
			<polygon fill="#111628" points="244.752,584.124 256.174,596.9 256.174,599.89 244.776,588.361 			"/>
		</g>
		<g>
			<path fill="#EAE8DA" d="M288.104,628.211c-3.149-3.149-9.447,4.199-13.646-1.05c-4.34-7.235-8.678-14.468-10.271-22.39
				c7.18,6.484,18.795,15.743,33.285,22.906c10.184,5.035,19.944,8.283,27.923,10.366
				C312.226,638.902,299.521,638.283,288.104,628.211z"/>
		</g>
		<g>
			<path fill="#111628" d="M256.174,596.9c0,0,2.871,3.225,8.013,7.871c1.593,7.922,5.931,15.154,10.271,22.39
				c4.199,5.249,10.497-2.1,13.646,1.05c11.417,10.072,24.122,10.691,37.291,9.833c11.508,3.001,19.309,3.579,19.309,3.579
				c7.969,1.109,5.101,5.382,3.508,6.309c-4.356,2.549-11.95,3.049-17.654-0.379c-5.706-3.422-5.706,0-5.706,0
				c1.334,4.379,7.67,8.094,6.696,10.195c-1.271,2.73-6.104,3.662-16.235-0.056c-9.501-3.487-24.001-17.438-24.001-17.438
				c-5.476-5.934-6.844-2.739-5.931,2.279c0.913,5.02,1.595,8.216-6.389,4.564c-7.354-3.358-11.866-13.232-18.71-25.554
				c-3.881-6.985-5.74-15.108-5.704-19.853C254.604,598.073,256.174,596.9,256.174,596.9z"/>
		</g>
	</g>
	<g>
		<g>
			<polygon fill="#111628" points="247.715,538.775 264.871,552.5 265.506,556.274 248.645,544.131 			"/>
		</g>
		<g>
			<path fill="#EAE8DA" d="M350.037,598.819c-17.845-8.397-36.739-17.845-56.684-9.447c-4.383-11.396-11.694-20.598-18.878-30.048
				c10.229,6.723,27.86,16.892,49.148,23.301c16.817,5.064,32.3,6.975,43.673,7.612c-1.216,0.356-2.422,0.757-3.613,1.234
				C359.484,593.571,356.335,600.919,350.037,598.819z"/>
		</g>
		<g>
			<path fill="#111628" d="M264.871,552.5c0,0,3.471,2.792,9.604,6.824c7.184,9.45,14.495,18.651,18.878,30.048
				c19.944-8.397,38.839,1.05,56.684,9.447c6.298,2.1,9.447-5.248,13.646-7.348c1.191-0.478,2.397-0.878,3.613-1.234
				c11.662,0.656,19.003-0.024,19.003-0.024c10.312-0.295,7.594,5.718,5.78,7.23c-4.968,4.144-14.462,6.389-22.402,3.276
				c-7.938-3.114-7.209,1.212-7.209,1.212c2.617,5.246,11.417,8.599,10.629,11.461c-1.025,3.725-6.937,5.931-20.534,3.387
				c-12.754-2.393-34.051-16.945-34.051-16.945c-8.185-6.335-9.236-2.007-7.015,4.146c2.221,6.153,3.767,10.044-7.105,7.127
				c-10.013-2.686-17.814-14.208-29.087-28.327c-6.393-8.007-10.468-17.882-11.432-23.881
				C263.133,554.312,264.871,552.5,264.871,552.5z"/>
		</g>
	</g>
	<g>
		<path fill="#FFFEF5" d="M169.736,431.918c-15.745,4.199-32.541-7.348-48.286,1.049c-2.377,1.783-5.091,1.546-7.951,0.815
			c-1.803-1.537-4.431-7.455,5.765-7.163c0,0,28.432,2.651,62.263-7.536c12.121-3.649,23.037-8.524,32.07-13.279
			c-6.124,5.278-13.836,6.584-19.719,12.467C188.63,425.62,178.134,428.769,169.736,431.918z"/>
	</g>
	<g>
		<path fill="#171E33" d="M121.45,432.967c15.745-8.397,32.541,3.149,48.286-1.049c8.398-3.149,18.895-6.298,24.143-13.646
			c5.882-5.882,13.595-7.189,19.719-12.467c16.183-8.518,26.299-16.649,26.299-16.649s1.723,1.801,0.993,6.355
			c-0.959,5.961-5.007,15.772-11.358,23.726c-11.199,14.027-18.95,25.473-28.895,28.14c-10.801,2.899-9.266-0.968-7.06-7.079
			c2.208-6.112,1.163-10.414-6.968-4.118c0,0-21.159,14.458-33.83,16.83c-13.504,2.53-19.379,0.343-20.397-3.36
			c-0.783-2.845,7.96-6.171,10.56-11.385c0,0,0.725-4.299-7.163-1.206c-7.886,3.093-17.32,0.862-22.255-3.253
			c-0.008-0.006-0.016-0.015-0.024-0.022C116.359,434.513,119.073,434.75,121.45,432.967z"/>
	</g>
	<g>
		<path fill="#171E33" d="M202.277,378.383c5.698-3.561,13.809-7.125,19.093-11.998c13.417-6.329,22.128-13.333,22.128-13.333
			s1.122,1.171,0.647,4.13c-0.625,3.874-3.256,10.249-7.384,15.418c-7.277,9.117-12.315,16.555-18.779,18.288
			c-7.018,1.884-6.021-0.629-4.587-4.602c1.434-3.971,0.756-6.765-4.528-2.675c0,0-13.752,9.398-21.985,10.938
			c-8.777,1.644-12.594,0.223-13.256-2.183c-0.509-1.85,5.172-4.012,6.862-7.399c0,0,0.471-2.794-4.656-0.784
			c-4.904,1.926-10.723,0.676-14.026-1.78c3.606-0.521,7.196-1.366,11.08-1.921C183.382,378.383,193.879,383.632,202.277,378.383z"
			/>
	</g>
	<g>
		<path fill="#FFFEF5" d="M165.102,377.399c0,0,18.478,1.725,40.465-4.896c5.74-1.729,11.063-3.881,15.804-6.117
			c-5.284,4.873-13.395,8.437-19.093,11.998c-8.398,5.249-18.895,0-29.392,2.099c-3.883,0.555-7.473,1.399-11.08,1.921
			c-0.147-0.11-0.297-0.219-0.435-0.334C160.2,381.093,158.445,377.21,165.102,377.399z"/>
	</g>
	<g>
		<path fill="#171E33" d="M231.777,331.2c7.242-3.843,11.755-7.47,11.755-7.47s0.788,0.824,0.454,2.906
			c-0.439,2.725-2.289,7.21-5.193,10.846c-5.12,6.414-8.665,11.646-13.212,12.865c-4.936,1.325-4.236-0.443-3.227-3.237
			c1.01-2.793,0.533-4.76-3.185-1.883c0,0-9.673,6.612-15.466,7.695c-6.174,1.156-8.86,0.156-9.327-1.537
			c-0.356-1.301,3.639-2.822,4.829-5.205c0,0,0.331-1.965-3.275-0.552c-2.832,1.112-6.085,0.71-8.45-0.421
			C202.23,340.917,223.852,343.444,231.777,331.2z"/>
	</g>
	<g>
		<path fill="#FFFEF5" d="M188.378,340.857c0,0,13,1.213,28.467-3.445c5.662-1.705,10.75-3.994,14.932-6.212
			c-20.825,17.005-29.546,9.717-44.298,14.009c-0.646-0.309-1.239-0.662-1.723-1.065
			C184.931,343.456,183.696,340.724,188.378,340.857z"/>
	</g>
	<g>
		<path fill="#111628" d="M245.982,359.252c0,0,5.751,4.623,15.152,9.854c6.37,18.058,31.764,19.773,46.915,19.773
			c4.781-0.684,15.342-1.366,25.607-1.76c0.123,1.068-0.577,2.218-1.154,2.699c-3.379,2.818-9.837,4.346-15.236,2.228
			c-5.4-2.118-4.903,0.826-4.903,0.826c1.778,3.568,7.764,5.847,7.229,7.793c-0.699,2.536-4.718,4.033-13.967,2.304
			c-8.675-1.625-23.16-11.525-23.16-11.525c-5.566-4.307-6.281-1.363-4.77,2.822c1.51,4.184,2.561,6.831-4.833,4.848
			c-6.811-1.828-12.116-9.664-19.784-19.27c-4.347-5.443-7.12-12.162-7.774-16.242C244.8,360.485,245.982,359.252,245.982,359.252z"
			/>
	</g>
	<g>
		<path fill="#EAE8DA" d="M261.134,369.107c6.677,3.716,15.19,7.738,24.807,10.634c23.165,6.976,42.63,5.16,42.63,5.16
			c3.733-0.107,4.943,1.003,5.084,2.22c-10.265,0.394-20.826,1.076-25.607,1.76C292.898,388.88,267.504,387.165,261.134,369.107z"/>
	</g>
	<g>
		<path fill="#EAE8DA" d="M293.353,347.942c-12.596,0-29.391,0-38.838-11.546c-2.08-1.56-3.385-4.151-3.919-7.134
			c5.477,3.5,14.235,8.366,24.677,11.511c17.857,5.377,32.861,3.977,32.861,3.977c4.423-0.127,4.273,1.961,3.55,3.159
			C305.333,347.596,298.817,347.942,293.353,347.942z"/>
	</g>
	<g>
		<path fill="#111628" d="M244.471,324.979c0,0,2.237,1.797,6.125,4.282c0.534,2.982,1.839,5.574,3.919,7.134
			c9.447,11.546,26.242,11.546,38.838,11.546c5.464,0,11.979-0.346,18.331-0.033c-0.16,0.266-0.348,0.489-0.521,0.633
			c-2.604,2.172-7.583,3.35-11.745,1.717c-4.163-1.632-3.779,0.636-3.779,0.636c1.371,2.751,5.985,4.508,5.572,6.008
			c-0.538,1.956-3.637,3.109-10.767,1.776c-6.687-1.252-17.852-8.884-17.852-8.884c-4.291-3.32-4.841-1.051-3.677,2.175
			c1.164,3.225,1.973,5.266-3.726,3.737c-5.25-1.409-9.34-7.449-15.25-14.853c-3.352-4.197-5.49-9.375-5.994-12.521
			C243.559,325.93,244.471,324.979,244.471,324.979z"/>
	</g>
	<g>
		<path fill="#EAE8DA" d="M269.741,460.47c10.47,5.91,24.042,12.419,39.443,17.057c35.762,10.768,65.812,7.966,65.812,7.966
			c7.669-0.219,8.473,2.884,7.614,5.277c-27.117-2.833-53.569-5.753-80.86-9.517C288.083,480.342,272.842,475.47,269.741,460.47z"/>
	</g>
	<g>
		<path fill="#111628" d="M247.486,445.893c0,0,8.415,6.765,22.255,14.578c3.101,15,18.342,19.872,32.01,20.783
			c27.291,3.764,53.744,6.684,80.86,9.517c-0.355,0.987-0.989,1.854-1.545,2.317c-5.217,4.351-15.187,6.71-23.524,3.439
			c-8.338-3.268-7.571,1.275-7.571,1.275c2.747,5.51,11.988,9.027,11.162,12.03c-1.076,3.915-7.285,6.229-21.564,3.556
			c-13.392-2.507-35.755-17.792-35.755-17.792c-8.595-6.652-9.699-2.104-7.368,4.354c2.333,6.46,3.955,10.548-7.461,7.484
			c-10.515-2.82-18.706-14.918-30.544-29.746c-6.713-8.408-10.993-18.779-12.006-25.079
			C245.662,447.798,247.486,445.893,247.486,445.893z"/>
	</g>
	<g>
		<path fill="#EAE8DA" d="M316.446,428.769c-9.447-3.149-22.043-2.099-31.491-8.397c-2.646-1.984-4.456-5.22-5.171-8.655
			c6.105,2.766,12.827,5.396,20.009,7.559c31.285,9.419,57.576,6.968,57.576,6.968c4.595-0.131,6.369,1.102,6.792,2.564
			C348.257,429.196,332.352,432.745,316.446,428.769z"/>
	</g>
	<g>
		<path fill="#111628" d="M245.818,391.6c0,0,13.475,10.834,33.966,20.117c0.715,3.435,2.526,6.67,5.171,8.655
			c9.447,6.298,22.043,5.249,31.491,8.397c15.906,3.977,31.811,0.427,47.715,0.039c0.45,1.553-0.625,3.364-1.482,4.08
			c-4.564,3.806-13.287,5.869-20.581,3.009c-7.292-2.86-6.625,1.114-6.625,1.114c2.405,4.822,10.49,7.896,9.765,10.527
			c-0.94,3.425-6.372,5.45-18.863,3.11c-11.716-2.194-31.282-15.565-31.282-15.565c-7.517-5.819-8.481-1.841-6.442,3.81
			c2.04,5.652,3.458,9.228-6.529,6.548c-9.198-2.468-16.362-13.051-26.72-26.023c-5.871-7.355-9.616-16.428-10.502-21.939
			C244.225,393.267,245.818,391.6,245.818,391.6z"/>
	</g>
	<g>
		<path fill="#EAE8DA" d="M358.435,544.235c-28.456-3.795-66.333-7.594-83.44-32.299c11.66,6.359,26.217,13.096,42.556,18.015
			c41.474,12.488,76.327,9.238,76.327,9.238c12.558-0.358,9.248,6.965,7.039,8.808c-0.575,0.48-1.214,0.929-1.882,1.363
			c-7.235-0.662-14.47-1.509-21.705-5.125C373.13,542.136,364.732,544.235,358.435,544.235z"/>
	</g>
	<g>
		<path fill="#111628" d="M245.997,493.264c0,0,11.061,8.891,28.998,18.673c17.107,24.705,54.984,28.504,83.44,32.299
			c6.298,0,14.696-2.1,18.895,0c7.235,3.616,14.47,4.463,21.705,5.125c-6.364,4.136-16.649,6.057-25.4,2.627
			c-9.668-3.793-8.783,1.476-8.783,1.476c3.189,6.391,13.906,10.469,12.946,13.956c-1.248,4.539-8.448,7.223-25.006,4.123
			c-15.532-2.909-41.469-20.636-41.469-20.636c-9.966-7.713-11.246-2.439-8.541,5.05c2.704,7.493,4.585,12.233-8.656,8.681
			c-12.193-3.272-21.692-17.302-35.422-34.497c-7.784-9.75-12.747-21.778-13.924-29.085
			C243.884,495.474,245.997,493.264,245.997,493.264z"/>
	</g>
</g>
<g>
	<g>
		<polygon fill="#FCF8C8" points="1176.249,125.874 1185.485,116.401 1175.525,124.538 1175.041,112.093 1173.983,124.227 
			1164.6,116.401 1173.883,125.668 1160.268,126.859 1173.366,126.859 1164.6,137.311 1174.498,127.619 1175.041,141.617 
			1175.835,127.727 1185.485,137.311 1176.657,126.859 1189.819,126.859 		"/>
	</g>
</g>
<g>
	<g>
		<path fill="#FCF8C8" d="M188.283,59.39c13.153,3.909,24.814,10.431,34.593,18.824c-42.418-2.022-82.343,24.94-94.982,67.47
			c-10.955,36.861,1.646,75.121,29.051,98.646c-7.464-0.355-15.004-1.601-22.487-3.825c-50.014-14.863-78.508-67.457-63.644-117.47
			S138.27,44.526,188.283,59.39z"/>
	</g>
	<g>
		<g>
			<g>
				<g>
					<path fill="#C5B896" d="M111.015,84.915c4.292-1.33,8.835-0.462,11.731,2.678c4.249,4.603,3.352,12.339-2,17.275
						c-1.595,1.472-3.412,2.52-5.283,3.158c0.083-0.07,0.166-0.146,0.248-0.214C124.065,101.307,119.837,88.771,111.015,84.915z"/>
				</g>
			</g>
		</g>
		<g opacity="0.7">
			<g>
				<g>
					<path fill="#D1CBA9" d="M105.367,88.198c1.7-1.572,3.647-2.663,5.647-3.283c8.823,3.856,13.05,16.392,4.696,22.897
						c-0.082,0.068-0.165,0.145-0.248,0.214c-4.396,1.496-9.115,0.676-12.094-2.555C99.12,100.867,100.015,93.134,105.367,88.198z"
						/>
				</g>
			</g>
		</g>
	</g>
	<g>
		<g>
			<g>
				<g>
					<path fill="#C5B896" d="M94.626,122.227c2.925-0.906,6.021-0.315,7.996,1.825c2.896,3.138,2.285,8.411-1.363,11.776
						c-1.087,1.003-2.325,1.717-3.599,2.152c0.054-0.047,0.111-0.099,0.167-0.147C103.522,133.398,100.641,124.854,94.626,122.227z"
						/>
				</g>
			</g>
		</g>
		<g opacity="0.7">
			<g>
				<g>
					<path fill="#D1CBA9" d="M90.777,124.464c1.159-1.071,2.486-1.816,3.85-2.237c6.014,2.628,8.896,11.172,3.2,15.606
						c-0.056,0.048-0.113,0.1-0.167,0.147c-3,1.02-6.215,0.461-8.247-1.742C86.519,133.099,87.129,127.828,90.777,124.464z"/>
				</g>
			</g>
		</g>
	</g>
</g>
<rect y="711" fill="#4573C4" width="1400" height="269"/>
<g>
	<polygon fill="#E8E6CA" points="471,685 462,685 462,664.202 453,659.224 444,664.202 444,685 441,685 441,664.202 
		431.998,659.224 423,664.202 423,685 421,685 421,664.202 411.998,659.224 403,664.202 403,685 400,685 400,664.202 391,659.224 
		382,664.202 382,685 379,685 379,664.202 369.999,659.224 361,664.202 361,685 358,685 358,664.202 349,659.224 340,664.202 
		340,685 337,685 337,664.202 327.998,659.224 319,664.202 319,685 316,685 316,664.202 307.498,659.224 299,664.202 299,685 
		296,685 296,664.202 287,659.224 278,664.202 278,685 275,685 275,664.202 265.999,659.224 257,664.202 257,685 254,685 
		254,664.201 244.998,659.224 236,664.201 236,685 233,685 233,664.201 224.499,659.224 216,664.201 216,685 213,685 213,664.201 
		204,659.224 195,664.201 195,685 192,685 192,664.201 183,659.224 174,664.201 174,685 171,685 171,664.201 161.998,659.224 
		153,664.201 153,685 145,685 145,690 153,690 153,742.348 153,815 171,815 171,764.642 171,690 174,690 174,767.666 174,815 
		192,815 192,782.861 192,690 195,690 195,784.917 195,815 213,815 213,795.435 213,690 216,690 216,796.876 216,815 233,815 
		233,804.276 233,690 236,690 236,805.29 236,815 254,815 254,810.455 254,690 257,690 257,802.504 257,815 275,815 275,794.856 
		275,690 278,690 278,793.438 278,815 296,815 296,783.738 296,690 299,690 299,781.965 299,815 316,815 316,770.163 316,690 
		319,690 319,768.051 319,815 337,815 337,754.132 337,690 340,690 340,751.674 340,815 358,815 358,735.631 358,690 361,690 
		361,802.504 361,815 379,815 379,794.856 379,690 382,690 382,793.438 382,815 400,815 400,783.738 400,690 403,690 403,781.965 
		403,815 421,815 421,770.163 421,690 423,690 423,768.051 423,815 441,815 441,754.132 441,690 444,690 444,751.674 444,815 
		462,815 462,735.631 462,690 471,690 	"/>
</g>
<g>
	<g>
		<polygon fill="#282332" points="292,505 292,508.73 295.193,505 		"/>
	</g>
	<g>
		<polygon fill="#373244" points="295.193,505 292,508.73 292,822 709,822 709,505 		"/>
	</g>
	<g>
		<rect x="293" y="534" fill="#130F1A" width="416" height="4"/>
	</g>
	<g>
		<rect x="293" y="546" fill="#130F1A" width="416" height="4"/>
	</g>
	<g>
		<rect x="293" y="559" fill="#130F1A" width="416" height="4"/>
	</g>
	<g>
		<rect x="293" y="571" fill="#130F1A" width="416" height="5"/>
	</g>
	<g>
		<rect x="293" y="584" fill="#130F1A" width="416" height="4"/>
	</g>
	<g>
		<rect x="293" y="597" fill="#130F1A" width="416" height="4"/>
	</g>
	<g>
		<rect x="293" y="609" fill="#130F1A" width="416" height="4"/>
	</g>
	<g>
		<rect x="293" y="622" fill="#130F1A" width="416" height="4"/>
	</g>
	<g>
		<rect x="293" y="634" fill="#130F1A" width="416" height="5"/>
	</g>
	<g>
		<rect x="293" y="647" fill="#130F1A" width="416" height="4"/>
	</g>
	<g>
		<rect x="293" y="660" fill="#130F1A" width="416" height="4"/>
	</g>
	<g>
		<rect x="293" y="672" fill="#130F1A" width="416" height="4"/>
	</g>
	<g>
		<rect x="293" y="685" fill="#130F1A" width="416" height="4"/>
	</g>
	<g>
		<rect x="293" y="697" fill="#130F1A" width="416" height="5"/>
	</g>
	<g>
		<rect x="293" y="710" fill="#130F1A" width="416" height="4"/>
	</g>
	<g>
		<rect x="293" y="723" fill="#130F1A" width="416" height="4"/>
	</g>
	<g>
		<rect x="293" y="735" fill="#130F1A" width="416" height="4"/>
	</g>
	<g>
		<rect x="293" y="748" fill="#130F1A" width="416" height="4"/>
	</g>
	<g>
		<rect x="293" y="760" fill="#130F1A" width="416" height="5"/>
	</g>
	<g>
		<rect x="293" y="773" fill="#130F1A" width="416" height="4"/>
	</g>
	<g>
		<rect x="293" y="785" fill="#130F1A" width="416" height="5"/>
	</g>
	<g>
		<rect x="293" y="798" fill="#130F1A" width="416" height="4"/>
	</g>
	<g>
		<rect x="293" y="811" fill="#130F1A" width="416" height="4"/>
	</g>
</g>
<g>
	<polygon fill="#282332" points="501.632,287.713 291.693,505 295.193,505 709.473,505 	"/>
</g>
<g>
	<g>
		<polygon fill="#130F1A" points="508.281,313 487.287,313 483.088,317 512.479,317 		"/>
	</g>
	<g>
		<polygon fill="#130F1A" points="520.877,326 474.69,326 470.492,330 525.076,330 		"/>
	</g>
	<g>
		<polygon fill="#130F1A" points="533.474,338 462.094,338 457.895,343 537.672,343 		"/>
	</g>
	<g>
		<polygon fill="#130F1A" points="546.07,351 449.498,351 445.299,355 550.269,355 		"/>
	</g>
	<g>
		<polygon fill="#130F1A" points="558.666,364 436.901,364 432.703,368 562.865,368 		"/>
	</g>
	<g>
		<polygon fill="#130F1A" points="571.263,376 424.305,376 420.106,380 575.461,380 		"/>
	</g>
	<g>
		<polygon fill="#130F1A" points="583.859,389 411.708,389 407.51,393 588.058,393 		"/>
	</g>
	<g>
		<polygon fill="#130F1A" points="596.455,401 399.112,401 394.914,406 600.654,406 		"/>
	</g>
	<g>
		<polygon fill="#130F1A" points="609.051,414 386.517,414 382.317,418 613.25,418 		"/>
	</g>
	<g>
		<polygon fill="#130F1A" points="621.647,427 373.92,427 369.721,431 625.846,431 		"/>
	</g>
	<g>
		<polygon fill="#130F1A" points="634.244,439 361.324,439 357.125,443 638.442,443 		"/>
	</g>
	<g>
		<polygon fill="#130F1A" points="646.84,452 348.727,452 344.528,456 651.039,456 		"/>
	</g>
	<g>
		<polygon fill="#130F1A" points="659.437,464 336.131,464 331.932,468 663.635,468 		"/>
	</g>
	<g>
		<polygon fill="#130F1A" points="672.033,477 323.535,477 319.336,481 676.231,481 		"/>
	</g>
	<g>
		<polygon fill="#130F1A" points="687.778,493 307.789,493 304.64,496 690.928,496 		"/>
	</g>
</g>
<g opacity="0.3">
	<path fill="#F7F5DC" d="M309.55,220.781c3.42-10.754,12.781-17.948,23.308-19.168c-3.04-2.977-5.387-6.742-6.66-11.118
		c-2.174-7.478-0.769-15.137,3.19-21.177c-6.139-0.868-10.767-6.24-10.558-12.578c0.136-4.169,2.335-7.778,5.583-9.897
		c-1.098-2.347-1.728-4.955-1.728-7.717c0-4.713,1.801-8.996,4.733-12.237c-1.209-2.202-1.9-4.728-1.9-7.418
		c0-8.522,6.91-15.432,15.433-15.432c1.494,0,2.932,0.224,4.298,0.619c0.04-5.735,4.698-10.374,10.443-10.374
		c5.768,0,10.446,4.677,10.446,10.446c0,5.745-4.64,10.403-10.373,10.442c0.395,1.366,0.619,2.806,0.619,4.299
		c0,2.689-0.691,5.216-1.9,7.417c2.932,3.241,4.732,7.524,4.732,12.238c0,9.251-6.884,16.877-15.806,18.082
		c0,0.113,0.009,0.224,0.006,0.337c-0.015,0.453-0.057,0.899-0.12,1.338c0.114-0.036,0.22-0.083,0.334-0.116
		c13.577-3.947,27.782,3.859,31.729,17.435c1.118,3.845,1.263,7.733,0.632,11.433c8.353,2.964,14.345,10.914,14.345,20.283
		c0,11.897-9.645,21.542-21.542,21.542c-1.716,0-3.378-0.223-4.978-0.602c0.025,1.972-0.171,3.966-0.577,5.958
		c0.979,0.22,1.956,0.462,2.93,0.772c18.188,5.788,28.24,25.224,22.452,43.41c-5.786,18.188-25.223,28.238-43.409,22.452
		c-18.19-5.787-28.239-25.223-22.453-43.41c0.408-1.282,0.899-2.511,1.438-3.71C311.768,248.488,305.272,234.222,309.55,220.781z"/>
</g>
<g>
	<rect x="340" y="297" fill="#282332" width="35" height="103"/>
</g>
<g>
	<rect x="329" y="296" fill="#282332" width="55" height="17"/>
</g>
<g>
	<rect x="707" y="528" fill="#1E1B26" width="366" height="290"/>
</g>
<g>
	<rect x="770" y="350" fill="#F1E2B3" width="58" height="83"/>
</g>
<g opacity="0.3">
	<polygon fill="#130F1A" points="607.214,358.005 823.89,548 794.498,548 607.214,358.005 	"/>
</g>
<g>
	<polygon fill="#E8E6CA" points="1399,687 1390,687 1390,666.302 1381,661.322 1372,666.302 1372,687 1369,687 1369,666.302 
		1359.998,661.322 1351,666.302 1351,687 1349,687 1349,666.302 1339.998,661.322 1331,666.302 1331,687 1328,687 1328,666.302 
		1319,661.322 1310,666.302 1310,687 1307,687 1307,666.302 1297.998,661.322 1289,666.302 1289,687 1286,687 1286,666.302 
		1277,661.322 1268,666.302 1268,687 1265,687 1265,666.302 1255.998,661.322 1247,666.302 1247,687 1244,687 1244,666.302 
		1235.498,661.322 1227,666.302 1227,687 1224,687 1224,666.302 1215,661.322 1206,666.302 1206,687 1203,687 1203,666.302 
		1193.998,661.322 1185,666.302 1185,687 1182,687 1182,666.301 1172.998,661.322 1164,666.301 1164,687 1161,687 1161,666.301 
		1152.499,661.322 1144,666.301 1144,687 1141,687 1141,666.301 1132,661.322 1123,666.301 1123,687 1120,687 1120,666.301 
		1111,661.322 1102,666.301 1102,687 1099,687 1099,666.301 1089.998,661.322 1081,666.301 1081,687 1073,687 1073,692 1081,692 
		1081,744.447 1081,817 1099,817 1099,766.741 1099,692 1102,692 1102,769.766 1102,817 1120,817 1120,784.96 1120,692 1123,692 
		1123,787.017 1123,817 1141,817 1141,797.534 1141,692 1144,692 1144,798.976 1144,817 1161,817 1161,806.375 1161,692 1164,692 
		1164,807.39 1164,817 1182,817 1182,812.555 1182,692 1185,692 1185,804.604 1185,817 1203,817 1203,796.956 1203,692 1206,692 
		1206,795.537 1206,817 1224,817 1224,785.838 1224,692 1227,692 1227,784.064 1227,817 1244,817 1244,772.263 1244,692 1247,692 
		1247,770.149 1247,817 1265,817 1265,756.23 1265,692 1268,692 1268,753.772 1268,817 1286,817 1286,737.73 1286,692 1289,692 
		1289,804.604 1289,817 1307,817 1307,796.956 1307,692 1310,692 1310,795.537 1310,817 1328,817 1328,785.838 1328,692 1331,692 
		1331,784.064 1331,817 1349,817 1349,772.263 1349,692 1351,692 1351,770.149 1351,817 1369,817 1369,756.23 1369,692 1372,692 
		1372,753.772 1372,817 1390,817 1390,737.73 1390,692 1399,692 	"/>
</g>
<g>
	<rect x="293" y="521" fill="#130F1A" width="416" height="4"/>
</g>
<g>
	<polygon fill="#130F1A" points="303,493 303,496 304.64,496 307.789,493 	"/>
</g>
<g>
	<g>
		<g>
			<rect x="707" y="536" fill="#0C0A11" width="366" height="4"/>
		</g>
		<g>
			<rect x="707" y="548" fill="#0C0A11" width="366" height="4"/>
		</g>
		<g>
			<rect x="707" y="561" fill="#0C0A11" width="366" height="4"/>
		</g>
		<g>
			<rect x="707" y="573" fill="#0C0A11" width="366" height="5"/>
		</g>
		<g>
			<rect x="707" y="586" fill="#0C0A11" width="366" height="4"/>
		</g>
		<g>
			<rect x="707" y="599" fill="#0C0A11" width="366" height="4"/>
		</g>
		<g>
			<rect x="707" y="611" fill="#0C0A11" width="366" height="4"/>
		</g>
		<g>
			<rect x="707" y="624" fill="#0C0A11" width="366" height="4"/>
		</g>
	</g>
	<g>
		<rect x="707" y="636" fill="#0C0A11" width="366" height="5"/>
	</g>
	<g>
		<rect x="707" y="649" fill="#0C0A11" width="366" height="4"/>
	</g>
	<g>
		<rect x="707" y="662" fill="#0C0A11" width="366" height="4"/>
	</g>
	<g>
		<rect x="707" y="674" fill="#0C0A11" width="366" height="4"/>
	</g>
	<g>
		<rect x="707" y="687" fill="#0C0A11" width="366" height="4"/>
	</g>
	<g>
		<rect x="707" y="699" fill="#0C0A11" width="366" height="5"/>
	</g>
	<g>
		<rect x="707" y="712" fill="#0C0A11" width="366" height="4"/>
	</g>
	<g>
		<rect x="707" y="725" fill="#0C0A11" width="366" height="4"/>
	</g>
	<g>
		<rect x="707" y="737" fill="#0C0A11" width="366" height="4"/>
	</g>
	<g>
		<rect x="707" y="750" fill="#0C0A11" width="366" height="4"/>
	</g>
	<g>
		<rect x="707" y="762" fill="#0C0A11" width="366" height="5"/>
	</g>
	<g>
		<rect x="707" y="775" fill="#0C0A11" width="366" height="4"/>
	</g>
	<g>
		<rect x="707" y="788" fill="#0C0A11" width="366" height="4"/>
	</g>
	<g>
		<rect x="707" y="800" fill="#0C0A11" width="366" height="4"/>
	</g>
	<g>
		<rect x="707" y="813" fill="#0C0A11" width="366" height="4"/>
	</g>
</g>
<g>
	<polygon fill="#130F1A" points="281,512 281,519.227 288.895,512 	"/>
</g>
<g>
	<polygon fill="#130F1A" points="277.248,508 270,518.674 270,530 295.192,530 728,530 728,508 	"/>
</g>
<g>
	<polygon fill="#130F1A" points="497,276.963 771.404,543 734.665,543 497,304.848 	"/>
</g>
<g>
	<polygon fill="#130F1A" points="497,276.963 223.463,546 260.202,546 497,304.848 	"/>
</g>
<g opacity="0.3">
	<path fill="#F7F5DC" d="M966.781,266.38c-2.192-6.892-8.191-11.502-14.938-12.284c1.947-1.908,3.452-4.321,4.269-7.125
		c1.393-4.792,0.492-9.701-2.045-13.572c3.934-0.556,6.899-3.999,6.767-8.061c-0.088-2.672-1.497-4.985-3.578-6.343
		c0.703-1.503,1.107-3.176,1.107-4.945c0-3.021-1.154-5.766-3.033-7.843c0.775-1.411,1.218-3.03,1.218-4.753
		c0-5.462-4.429-9.89-9.892-9.89c-0.957,0-1.879,0.143-2.754,0.396c-0.025-3.676-3.011-6.648-6.693-6.648
		c-3.696,0-6.694,2.997-6.694,6.694c0,3.682,2.974,6.667,6.647,6.692c-0.253,0.875-0.396,1.798-0.396,2.756
		c0,1.723,0.442,3.343,1.218,4.753c-1.879,2.077-3.033,4.822-3.033,7.843c0,5.929,4.412,10.816,10.13,11.588
		c0,0.072-0.006,0.144-0.004,0.216c0.009,0.291,0.037,0.576,0.076,0.858c-0.072-0.023-0.14-0.053-0.214-0.075
		c-8.701-2.529-17.805,2.473-20.335,11.174c-0.716,2.464-0.81,4.956-0.404,7.326c-5.354,1.9-9.193,6.995-9.193,13
		c0,7.625,6.182,13.806,13.806,13.806c1.101,0,2.165-0.143,3.19-0.385c-0.017,1.263,0.109,2.542,0.37,3.818
		c-0.628,0.141-1.254,0.296-1.878,0.495c-11.656,3.709-18.1,16.165-14.39,27.821c3.708,11.656,16.165,18.097,27.82,14.389
		c11.657-3.709,18.098-16.166,14.39-27.821c-0.262-0.822-0.576-1.609-0.922-2.377C965.359,284.138,969.522,274.994,966.781,266.38z"
		/>
</g>
<g>
	<rect x="919" y="308" fill="#282332" width="35" height="52"/>
</g>
<g>
	<rect x="909" y="308" fill="#282332" width="54" height="15"/>
</g>
<g>
	<polygon fill="#FFFEF5" points="1090.922,528.188 1032.511,358 666.093,358 608.264,358 775.138,527.918 	"/>
</g>
<g>
	<rect x="742" y="624" fill="#4573C4" width="88" height="159"/>
</g>
<g>
	<g>
		<rect x="751" y="358" fill="#373244" width="116" height="110"/>
	</g>
	<g>
		<g>
			<polygon fill="#FFFFFF" points="809,302.989 809,296.139 711.047,364 722.855,364 			"/>
		</g>
		<g>
			<polygon fill="#130F1A" points="808.669,314.425 809.193,303.348 722.855,364 744.899,364 			"/>
		</g>
	</g>
	<g>
		<g>
			<polygon fill="#4573C4" points="809.193,302.989 809.026,296.947 907.698,364.329 896.056,363.521 			"/>
		</g>
		<g>
			<polygon fill="#191523" points="808.669,314.425 809.193,303.348 896.056,364 874.013,364 			"/>
		</g>
	</g>
	<g>
		<g>
			<rect x="778" y="372" fill="#C67C2C" width="58" height="86"/>
		</g>
		<g>
			<rect x="792" y="385" fill="#F2B357" width="44" height="73"/>
		</g>
		<g>
			<rect x="776" y="373" fill="#130F1A" width="62" height="4"/>
		</g>
		<g>
			<rect x="775" y="458" fill="#130F1A" width="68" height="5"/>
		</g>
		<g>
			<polygon fill="#130F1A" points="777,396 777,400 819.34,400 824.588,396 			"/>
		</g>
		<g>
			<polygon fill="#282332" points="839,396 824.588,396 819.34,400 839,400 			"/>
		</g>
		<g>
			<rect x="775" y="373" fill="#130F1A" width="6" height="85"/>
		</g>
		<g>
			<rect x="806" y="373" fill="#130F1A" width="6" height="85"/>
		</g>
		<g>
			<rect x="836" y="372" fill="#282332" width="7" height="86"/>
		</g>
		<g>
			<rect x="768" y="366" fill="#F1E2B3" width="81" height="7"/>
		</g>
		<g>
			<g>
				<rect x="742" y="373" fill="#4573C4" width="33" height="85"/>
			</g>
			<g>
				<rect x="746" y="377" fill="#282332" width="25" height="3"/>
			</g>
			<g>
				<rect x="746" y="383" fill="#282332" width="25" height="4"/>
			</g>
			<g>
				<rect x="746" y="390" fill="#282332" width="25" height="2"/>
			</g>
			<g>
				<rect x="746" y="396" fill="#282332" width="25" height="2"/>
			</g>
			<g>
				<rect x="746" y="401" fill="#282332" width="25" height="3"/>
			</g>
			<g>
				<rect x="746" y="408" fill="#282332" width="25" height="3"/>
			</g>
			<g>
				<rect x="746" y="414" fill="#282332" width="25" height="2"/>
			</g>
			<g>
				<rect x="746" y="420" fill="#282332" width="25" height="2"/>
			</g>
			<g>
				<rect x="746" y="425" fill="#282332" width="25" height="4"/>
			</g>
			<g>
				<rect x="746" y="432" fill="#282332" width="25" height="2"/>
			</g>
			<g>
				<rect x="746" y="438" fill="#282332" width="25" height="2"/>
			</g>
			<g>
				<rect x="746" y="443" fill="#282332" width="25" height="3"/>
			</g>
			<g>
				<rect x="746" y="450" fill="#282332" width="25" height="3"/>
			</g>
		</g>
		<g>
			<g>
				<rect x="843" y="373" fill="#4573C4" width="32" height="85"/>
			</g>
			<g>
				<rect x="847" y="377" fill="#282332" width="25" height="3"/>
			</g>
			<g>
				<rect x="847" y="383" fill="#282332" width="25" height="4"/>
			</g>
			<g>
				<rect x="847" y="390" fill="#282332" width="25" height="2"/>
			</g>
			<g>
				<rect x="847" y="396" fill="#282332" width="25" height="2"/>
			</g>
			<g>
				<rect x="847" y="401" fill="#282332" width="25" height="3"/>
			</g>
			<g>
				<rect x="847" y="408" fill="#282332" width="25" height="3"/>
			</g>
			<g>
				<rect x="847" y="414" fill="#282332" width="25" height="2"/>
			</g>
			<g>
				<rect x="847" y="420" fill="#282332" width="25" height="2"/>
			</g>
			<g>
				<rect x="847" y="425" fill="#282332" width="25" height="4"/>
			</g>
			<g>
				<rect x="847" y="432" fill="#282332" width="25" height="2"/>
			</g>
			<g>
				<rect x="847" y="438" fill="#282332" width="25" height="2"/>
			</g>
			<g>
				<rect x="847" y="443" fill="#282332" width="25" height="3"/>
			</g>
			<g>
				<rect x="847" y="450" fill="#282332" width="25" height="3"/>
			</g>
		</g>
	</g>
	<g>
		<polygon fill="#282332" points="808.669,313.913 751.46,358 866.927,358 		"/>
	</g>
</g>
<g>
	<path fill="#0C0A11" d="M821,771h-72V639h72V771z M751,769h68V641h-68V769z"/>
</g>
<g>
	<rect x="733" y="613" fill="#F1E2B3" width="107" height="12"/>
</g>
<g opacity="0.6">
	<polygon fill="#130F1A" points="292.113,542.809 291.693,530 707.373,530 707.016,583.729 	"/>
</g>
<g opacity="0.5">
	<polygon fill="#130F1A" points="497.434,304.118 356.774,508 295.193,508 	"/>
</g>
<g opacity="0.5">
	<polygon fill="#130F1A" points="497.434,304.848 700.161,508.38 669.584,508.73 	"/>
</g>
<g opacity="0.5">
	<polygon fill="#130F1A" points="940.457,823.102 708,822.833 708,529 804.589,529 	"/>
</g>
<g>
	<g>
		<rect x="471" y="388" fill="#C67C2C" width="59" height="105"/>
	</g>
	<g>
		<rect x="486" y="403" fill="#F2B357" width="44" height="90"/>
	</g>
	<g>
		<rect x="469" y="389" fill="#130F1A" width="62" height="5"/>
	</g>
	<g>
		<rect x="468" y="493" fill="#130F1A" width="68" height="6"/>
	</g>
	<g>
		<polygon fill="#130F1A" points="470,417 470,422 512.829,422 518.078,417 		"/>
	</g>
	<g>
		<polygon fill="#282332" points="532,417 518.078,417 512.829,422 532,422 		"/>
	</g>
	<g>
		<rect x="468" y="389" fill="#130F1A" width="6" height="105"/>
	</g>
	<g>
		<rect x="500" y="389" fill="#130F1A" width="6" height="105"/>
	</g>
	<g>
		<rect x="530" y="388" fill="#282332" width="6" height="105"/>
	</g>
	<g>
		<rect x="462" y="380" fill="#F1E2B3" width="81" height="9"/>
	</g>
	<g>
		<g>
			<rect x="436" y="389" fill="#4573C4" width="32" height="105"/>
		</g>
		<g>
			<rect x="440" y="395" fill="#282332" width="25" height="3"/>
		</g>
		<g>
			<rect x="440" y="402" fill="#282332" width="25" height="4"/>
		</g>
		<g>
			<rect x="440" y="410" fill="#282332" width="25" height="3"/>
		</g>
		<g>
			<rect x="440" y="417" fill="#282332" width="25" height="3"/>
		</g>
		<g>
			<rect x="440" y="424" fill="#282332" width="25" height="4"/>
		</g>
		<g>
			<rect x="440" y="432" fill="#282332" width="25" height="3"/>
		</g>
		<g>
			<rect x="440" y="439" fill="#282332" width="25" height="3"/>
		</g>
		<g>
			<rect x="440" y="446" fill="#282332" width="25" height="4"/>
		</g>
		<g>
			<rect x="440" y="454" fill="#282332" width="25" height="3"/>
		</g>
		<g>
			<rect x="440" y="461" fill="#282332" width="25" height="3"/>
		</g>
		<g>
			<rect x="440" y="468" fill="#282332" width="25" height="4"/>
		</g>
		<g>
			<rect x="440" y="476" fill="#282332" width="25" height="3"/>
		</g>
		<g>
			<rect x="440" y="483" fill="#282332" width="25" height="3"/>
		</g>
	</g>
	<g>
		<g>
			<rect x="536" y="389" fill="#4573C4" width="33" height="105"/>
		</g>
		<g>
			<rect x="540" y="395" fill="#282332" width="26" height="3"/>
		</g>
		<g>
			<rect x="540" y="402" fill="#282332" width="26" height="4"/>
		</g>
		<g>
			<rect x="540" y="410" fill="#282332" width="26" height="3"/>
		</g>
		<g>
			<rect x="540" y="417" fill="#282332" width="26" height="3"/>
		</g>
		<g>
			<rect x="540" y="424" fill="#282332" width="26" height="4"/>
		</g>
		<g>
			<rect x="540" y="432" fill="#282332" width="26" height="3"/>
		</g>
		<g>
			<rect x="540" y="439" fill="#282332" width="26" height="3"/>
		</g>
		<g>
			<rect x="540" y="446" fill="#282332" width="26" height="4"/>
		</g>
		<g>
			<rect x="540" y="454" fill="#282332" width="26" height="3"/>
		</g>
		<g>
			<rect x="540" y="461" fill="#282332" width="26" height="3"/>
		</g>
		<g>
			<rect x="540" y="468" fill="#282332" width="26" height="4"/>
		</g>
		<g>
			<rect x="540" y="476" fill="#282332" width="26" height="3"/>
		</g>
		<g>
			<rect x="540" y="483" fill="#282332" width="26" height="3"/>
		</g>
	</g>
</g>
<g>
	<g>
		<rect x="366" y="611" fill="#C67C2C" width="66" height="118"/>
	</g>
	<g>
		<rect x="383" y="629" fill="#F2B357" width="49" height="100"/>
	</g>
	<g>
		<rect x="364" y="612" fill="#130F1A" width="69" height="7"/>
	</g>
	<g>
		<rect x="363" y="729" fill="#130F1A" width="77" height="7"/>
	</g>
	<g>
		<polygon fill="#130F1A" points="365,644 365,650 413.38,650 419.279,644 		"/>
	</g>
	<g>
		<polygon fill="#282332" points="436,644 419.279,644 413.38,650 436,650 		"/>
	</g>
	<g>
		<rect x="363" y="612" fill="#130F1A" width="7" height="118"/>
	</g>
	<g>
		<rect x="399" y="612" fill="#130F1A" width="6" height="118"/>
	</g>
	<g>
		<rect x="432" y="611" fill="#282332" width="8" height="118"/>
	</g>
	<g>
		<rect x="356" y="603" fill="#F1E2B3" width="91" height="9"/>
	</g>
	<g>
		<g>
			<rect x="326" y="612" fill="#4573C4" width="37" height="118"/>
		</g>
		<g>
			<rect x="332" y="620" fill="#282332" width="28" height="3"/>
		</g>
		<g>
			<rect x="332" y="628" fill="#282332" width="28" height="3"/>
		</g>
		<g>
			<rect x="332" y="635" fill="#282332" width="28" height="5"/>
		</g>
		<g>
			<rect x="332" y="644" fill="#282332" width="28" height="4"/>
		</g>
		<g>
			<rect x="332" y="652" fill="#282332" width="28" height="4"/>
		</g>
		<g>
			<rect x="332" y="661" fill="#282332" width="28" height="3"/>
		</g>
		<g>
			<rect x="332" y="669" fill="#282332" width="28" height="3"/>
		</g>
		<g>
			<rect x="332" y="677" fill="#282332" width="28" height="4"/>
		</g>
		<g>
			<rect x="332" y="686" fill="#282332" width="28" height="3"/>
		</g>
		<g>
			<rect x="332" y="694" fill="#282332" width="28" height="3"/>
		</g>
		<g>
			<rect x="332" y="702" fill="#282332" width="28" height="4"/>
		</g>
		<g>
			<rect x="332" y="710" fill="#282332" width="28" height="4"/>
		</g>
		<g>
			<rect x="332" y="718" fill="#282332" width="28" height="5"/>
		</g>
	</g>
	<g>
		<g>
			<rect x="440" y="612" fill="#4573C4" width="36" height="118"/>
		</g>
		<g>
			<rect x="445" y="620" fill="#282332" width="27" height="3"/>
		</g>
		<g>
			<rect x="445" y="628" fill="#282332" width="27" height="3"/>
		</g>
		<g>
			<rect x="445" y="635" fill="#282332" width="27" height="5"/>
		</g>
		<g>
			<rect x="445" y="644" fill="#282332" width="27" height="4"/>
		</g>
		<g>
			<rect x="445" y="652" fill="#282332" width="27" height="4"/>
		</g>
		<g>
			<rect x="445" y="661" fill="#282332" width="27" height="3"/>
		</g>
		<g>
			<rect x="445" y="669" fill="#282332" width="27" height="3"/>
		</g>
		<g>
			<rect x="445" y="677" fill="#282332" width="27" height="4"/>
		</g>
		<g>
			<rect x="445" y="686" fill="#282332" width="27" height="3"/>
		</g>
		<g>
			<rect x="445" y="694" fill="#282332" width="27" height="3"/>
		</g>
		<g>
			<rect x="445" y="702" fill="#282332" width="27" height="4"/>
		</g>
		<g>
			<rect x="445" y="710" fill="#282332" width="27" height="4"/>
		</g>
		<g>
			<rect x="445" y="718" fill="#282332" width="27" height="5"/>
		</g>
	</g>
</g>
<g>
	<g>
		<rect x="567" y="613" fill="#C67C2C" width="66" height="118"/>
	</g>
	<g>
		<rect x="584" y="631" fill="#F2B357" width="49" height="100"/>
	</g>
	<g>
		<rect x="565" y="614" fill="#130F1A" width="69" height="7"/>
	</g>
	<g>
		<rect x="564" y="731" fill="#130F1A" width="76" height="7"/>
	</g>
	<g>
		<polygon fill="#130F1A" points="566,646 566,652 613.873,652 619.771,646 		"/>
	</g>
	<g>
		<polygon fill="#282332" points="636,646 619.771,646 613.873,652 636,652 		"/>
	</g>
	<g>
		<rect x="564" y="614" fill="#130F1A" width="7" height="118"/>
	</g>
	<g>
		<rect x="599" y="614" fill="#130F1A" width="7" height="118"/>
	</g>
	<g>
		<rect x="633" y="613" fill="#282332" width="7" height="118"/>
	</g>
	<g>
		<rect x="556" y="605" fill="#F1E2B3" width="92" height="9"/>
	</g>
	<g>
		<g>
			<rect x="527" y="614" fill="#4573C4" width="37" height="118"/>
		</g>
		<g>
			<rect x="532" y="622" fill="#282332" width="28" height="3"/>
		</g>
		<g>
			<rect x="532" y="630" fill="#282332" width="28" height="3"/>
		</g>
		<g>
			<rect x="532" y="637" fill="#282332" width="28" height="5"/>
		</g>
		<g>
			<rect x="532" y="646" fill="#282332" width="28" height="4"/>
		</g>
		<g>
			<rect x="532" y="654" fill="#282332" width="28" height="4"/>
		</g>
		<g>
			<rect x="532" y="663" fill="#282332" width="28" height="3"/>
		</g>
		<g>
			<rect x="532" y="671" fill="#282332" width="28" height="3"/>
		</g>
		<g>
			<rect x="532" y="679" fill="#282332" width="28" height="4"/>
		</g>
		<g>
			<rect x="532" y="688" fill="#282332" width="28" height="3"/>
		</g>
		<g>
			<rect x="532" y="696" fill="#282332" width="28" height="3"/>
		</g>
		<g>
			<rect x="532" y="704" fill="#282332" width="28" height="4"/>
		</g>
		<g>
			<rect x="532" y="712" fill="#282332" width="28" height="4"/>
		</g>
		<g>
			<rect x="532" y="720" fill="#282332" width="28" height="5"/>
		</g>
	</g>
	<g>
		<g>
			<rect x="640" y="614" fill="#4573C4" width="37" height="118"/>
		</g>
		<g>
			<rect x="645" y="622" fill="#282332" width="28" height="3"/>
		</g>
		<g>
			<rect x="645" y="630" fill="#282332" width="28" height="3"/>
		</g>
		<g>
			<rect x="645" y="637" fill="#282332" width="28" height="5"/>
		</g>
		<g>
			<rect x="645" y="646" fill="#282332" width="28" height="4"/>
		</g>
		<g>
			<rect x="645" y="654" fill="#282332" width="28" height="4"/>
		</g>
		<g>
			<rect x="645" y="663" fill="#282332" width="28" height="3"/>
		</g>
		<g>
			<rect x="645" y="671" fill="#282332" width="28" height="3"/>
		</g>
		<g>
			<rect x="645" y="679" fill="#282332" width="28" height="4"/>
		</g>
		<g>
			<rect x="645" y="688" fill="#282332" width="28" height="3"/>
		</g>
		<g>
			<rect x="645" y="696" fill="#282332" width="28" height="3"/>
		</g>
		<g>
			<rect x="645" y="704" fill="#282332" width="28" height="4"/>
		</g>
		<g>
			<rect x="645" y="712" fill="#282332" width="28" height="4"/>
		</g>
		<g>
			<rect x="645" y="720" fill="#282332" width="28" height="5"/>
		</g>
	</g>
</g>
<g>
	<polygon fill="#FFFEF5" points="186.937,552 217.919,552 497,276.963 497,246.535 	"/>
</g>
<g>
	<g>
		<rect x="914" y="589" fill="#C67C2C" width="66" height="118"/>
	</g>
	<g>
		<rect x="931" y="607" fill="#F2B357" width="49" height="100"/>
	</g>
	<g>
		<rect x="912" y="590" fill="#130F1A" width="69" height="7"/>
	</g>
	<g>
		<rect x="911" y="707" fill="#130F1A" width="77" height="7"/>
	</g>
	<g>
		<polygon fill="#130F1A" points="913,622 913,628 961.321,628 967.22,622 		"/>
	</g>
	<g>
		<polygon fill="#282332" points="983,622 967.22,622 961.321,628 983,628 		"/>
	</g>
	<g>
		<rect x="911" y="590" fill="#130F1A" width="7" height="118"/>
	</g>
	<g>
		<rect x="947" y="590" fill="#130F1A" width="6" height="118"/>
	</g>
	<g>
		<rect x="980" y="589" fill="#282332" width="8" height="118"/>
	</g>
	<g>
		<rect x="904" y="581" fill="#F1E2B3" width="91" height="9"/>
	</g>
	<g>
		<g>
			<rect x="874" y="590" fill="#4573C4" width="37" height="118"/>
		</g>
		<g>
			<rect x="880" y="598" fill="#282332" width="28" height="3"/>
		</g>
		<g>
			<rect x="880" y="606" fill="#282332" width="28" height="3"/>
		</g>
		<g>
			<rect x="880" y="613" fill="#282332" width="28" height="5"/>
		</g>
		<g>
			<rect x="880" y="622" fill="#282332" width="28" height="4"/>
		</g>
		<g>
			<rect x="880" y="630" fill="#282332" width="28" height="4"/>
		</g>
		<g>
			<rect x="880" y="639" fill="#282332" width="28" height="3"/>
		</g>
		<g>
			<rect x="880" y="647" fill="#282332" width="28" height="3"/>
		</g>
		<g>
			<rect x="880" y="655" fill="#282332" width="28" height="3"/>
		</g>
		<g>
			<rect x="880" y="664" fill="#282332" width="28" height="3"/>
		</g>
		<g>
			<rect x="880" y="672" fill="#282332" width="28" height="3"/>
		</g>
		<g>
			<rect x="880" y="679" fill="#282332" width="28" height="5"/>
		</g>
		<g>
			<rect x="880" y="688" fill="#282332" width="28" height="4"/>
		</g>
		<g>
			<rect x="880" y="696" fill="#282332" width="28" height="4"/>
		</g>
	</g>
	<g>
		<g>
			<rect x="988" y="590" fill="#4573C4" width="36" height="118"/>
		</g>
		<g>
			<rect x="993" y="598" fill="#282332" width="27" height="3"/>
		</g>
		<g>
			<rect x="993" y="606" fill="#282332" width="27" height="3"/>
		</g>
		<g>
			<rect x="993" y="613" fill="#282332" width="27" height="5"/>
		</g>
		<g>
			<rect x="993" y="622" fill="#282332" width="27" height="4"/>
		</g>
		<g>
			<rect x="993" y="630" fill="#282332" width="27" height="4"/>
		</g>
		<g>
			<rect x="993" y="639" fill="#282332" width="27" height="3"/>
		</g>
		<g>
			<rect x="993" y="647" fill="#282332" width="27" height="3"/>
		</g>
		<g>
			<rect x="993" y="655" fill="#282332" width="27" height="3"/>
		</g>
		<g>
			<rect x="993" y="664" fill="#282332" width="27" height="3"/>
		</g>
		<g>
			<rect x="993" y="672" fill="#282332" width="27" height="3"/>
		</g>
		<g>
			<rect x="993" y="679" fill="#282332" width="27" height="5"/>
		</g>
		<g>
			<rect x="993" y="688" fill="#282332" width="27" height="4"/>
		</g>
		<g>
			<rect x="993" y="696" fill="#282332" width="27" height="4"/>
		</g>
	</g>
</g>
<g>
	<circle fill="#0C0A11" cx="763.007" cy="713.07" r="4.724"/>
</g>
<g>
	<rect x="707" y="783" fill="#9B9072" width="158" height="13"/>
</g>
<g opacity="0.2">
	<polygon fill="#130F1A" points="907.902,363.276 987.078,468 867,468 867,358.273 	"/>
</g>
<g>
	<rect x="707" y="797" fill="#9B9072" width="175" height="13"/>
</g>
<g>
	<rect x="707" y="811" fill="#9B9072" width="187" height="12"/>
</g>
<g opacity="0.2">
	<polygon fill="#130F1A" points="732.565,625 830,625 830,633.293 	"/>
</g>
<g opacity="0.5">
	<polygon fill="#130F1A" points="1081.479,528 1123.01,816.626 1073,816.99 1073,528 	"/>
</g>
<g>
	<polygon fill="#130F1A" points="738,355 738,361 829.925,361 823.627,355 	"/>
</g>
<g>
	<polygon fill="#191523" points="871,355 823.627,355 829.925,361 871,361 	"/>
</g>
<g opacity="0.5">
	<polygon fill="#130F1A" points="919,323 954,323 954,338.504 919,330.543 	"/>
</g>
<g opacity="0.6">
	<polygon fill="#130F1A" points="340,313 340,321.534 375,329.931 375,313 	"/>
</g>
<g opacity="0.2">
	<polygon fill="#130F1A" points="623.135,358 607.18,358 774.088,527.986 912.773,528.119 633.48,358 	"/>
</g>
<g>
	<path fill="#FFFEF5" d="M200,571.886c0,0.87-1.305,1.575-2.5,1.575l0,0c-1.196,0-2.5-0.705-2.5-1.575v-22.043
		c0-0.869,1.304-1.575,2.5-1.575l0,0c1.195,0,2.5,0.706,2.5,1.575V571.886z"/>
</g>
<g>
	<path fill="#FFFEF5" d="M213,564.538c0,0.869-2.02,1.575-4,1.575l0,0c-1.98,0-4-0.706-4-1.575v-22.044c0-0.869,2.02-1.574,4-1.574
		l0,0c1.98,0,4,0.705,4,1.574V564.538z"/>
</g>
<g>
	<path fill="#FFFEF5" d="M379,411.283c0,0.869-1.304,1.574-2.5,1.574l0,0c-1.195,0-2.5-0.705-2.5-1.574v-22.044
		c0-0.869,1.305-1.574,2.5-1.574l0,0c1.196,0,2.5,0.705,2.5,1.574V411.283z"/>
</g>
<g>
	<path fill="#FFFEF5" d="M400,391.338c0,0.869-0.678,1.575-1.5,1.575l0,0c-0.822,0-1.5-0.706-1.5-1.575v-22.043
		c0-0.87,0.678-1.575,1.5-1.575l0,0c0.822,0,1.5,0.705,1.5,1.575V391.338z"/>
</g>
<g>
	<path fill="#FFFEF5" d="M283,503.656c0,0.869-1.304,1.574-2.5,1.574l0,0c-1.195,0-2.5-0.705-2.5-1.574v-22.044
		c0-0.869,1.305-1.575,2.5-1.575l0,0c1.196,0,2.5,0.706,2.5,1.575V503.656z"/>
</g>
<g>
	<path fill="#4573C4" d="M570,362.182c0,0.723-0.678,1.31-1.5,1.31l0,0c-0.822,0-1.5-0.587-1.5-1.31v-18.345
		c0-0.723,0.678-1.31,1.5-1.31l0,0c0.822,0,1.5,0.587,1.5,1.31V362.182z"/>
</g>
<g>
	<path fill="#4573C4" d="M584,374.778c0,0.723-1.126,1.31-2,1.31l0,0c-0.875,0-2-0.587-2-1.31v-18.344c0-0.724,1.125-1.31,2-1.31
		l0,0c0.874,0,2,0.586,2,1.31V374.778z"/>
</g>
<g>
	<path fill="#4573C4" d="M653,444.873c0,0.869-0.678,1.574-1.5,1.574l0,0c-0.822,0-1.5-0.705-1.5-1.574v-22.044
		c0-0.869,0.678-1.574,1.5-1.574l0,0c0.822,0,1.5,0.705,1.5,1.574V444.873z"/>
</g>
<g>
	<path fill="#4573C4" d="M599,381.891c0,0.869-0.678,1.575-1.5,1.575l0,0c-0.822,0-1.5-0.706-1.5-1.575v-22.043
		c0-0.87,0.678-1.575,1.5-1.575l0,0c0.822,0,1.5,0.705,1.5,1.575V381.891z"/>
</g>
<g>
	<path fill="#4573C4" d="M779,550.893c0,0.869-0.678,1.574-1.5,1.574l0,0c-0.822,0-1.5-0.705-1.5-1.574v-22.044
		c0-0.869,0.678-1.574,1.5-1.574l0,0c0.822,0,1.5,0.705,1.5,1.574V550.893z"/>
</g>
<g>
	<path fill="#4573C4" d="M787,547.48c0,0.435-0.678,0.787-1.5,0.787l0,0c-0.822,0-1.5-0.353-1.5-0.787v-11.021
		c0-0.435,0.678-0.787,1.5-0.787l0,0c0.822,0,1.5,0.353,1.5,0.787V547.48z"/>
</g>
<g>
	<path fill="#4573C4" d="M719,497.096c0,0.434-0.678,0.787-1.5,0.787l0,0c-0.822,0-1.5-0.354-1.5-0.787v-11.022
		c0-0.435,0.678-0.787,1.5-0.787l0,0c0.822,0,1.5,0.353,1.5,0.787V497.096z"/>
</g>
<g>
	<path fill="#4573C4" d="M730,508.642c0,0.435-0.678,0.788-1.5,0.788l0,0c-0.822,0-1.5-0.354-1.5-0.788V497.62
		c0-0.435,0.678-0.787,1.5-0.787l0,0c0.822,0,1.5,0.353,1.5,0.787V508.642z"/>
</g>
<g>
	<path fill="#4573C4" d="M797,553.779c0,0.435-1.178,0.787-2,0.787l0,0c-0.822,0-2-0.353-2-0.787v-11.022
		c0-0.435,1.178-0.787,2-0.787l0,0c0.822,0,2,0.353,2,0.787V553.779z"/>
</g>
<g>
	<path fill="#FFFEF5" d="M391,399.736c0,0.869-2.02,1.575-4,1.575l0,0c-1.98,0-4-0.706-4-1.575v-22.043c0-0.869,2.02-1.575,4-1.575
		l0,0c1.98,0,4,0.706,4,1.575V399.736z"/>
</g>
<g>
	<path fill="#4573C4" d="M635,407.084v22.043c0,0.818,2,1.484,4,1.56v-25.163C637,405.6,635,406.265,635,407.084z"/>
</g>
<g>
	<rect x="785" y="528" fill="#130F1A" width="293" height="13"/>
</g>
<g>
	<polygon fill="#4573C4" points="497,246.535 799.222,543 771.404,543 497,276.963 	"/>
</g>
<g>
	<path fill="#FFFEF5" d="M1064,549.843c0,0.869-1.305,1.574-2.5,1.574l0,0c-1.195,0-2.5-0.705-2.5-1.574v-22.044
		c0-0.869,1.305-1.574,2.5-1.574l0,0c1.195,0,2.5,0.705,2.5,1.574V549.843z"/>
</g>
<g>
	<path fill="#FFFEF5" d="M975,535.508c0,0.67-0.991,1.214-2,1.214l0,0c-1.009,0-2-0.544-2-1.214v-16.992c0-0.67,0.991-1.214,2-1.214
		l0,0c1.009,0,2,0.544,2,1.214V535.508z"/>
</g>
<g>
	<path fill="#FFFEF5" d="M938,540.668c0,0.628-0.991,1.138-2,1.138l0,0c-1.009,0-2-0.51-2-1.138v-15.93c0-0.629,0.991-1.139,2-1.139
		l0,0c1.009,0,2,0.51,2,1.139V540.668z"/>
</g>
<g>
	<path fill="#FFFEF5" d="M925,538.568c0,0.629-1.491,1.138-2.5,1.138l0,0c-1.009,0-2.5-0.509-2.5-1.138v-15.93
		c0-0.629,1.491-1.138,2.5-1.138l0,0c1.009,0,2.5,0.509,2.5,1.138V538.568z"/>
</g>
<g>
	<path fill="#FFFEF5" d="M983,540.396c0,0.869-0.678,1.574-1.5,1.574l0,0c-0.822,0-1.5-0.705-1.5-1.574v-22.044
		c0-0.869,0.678-1.574,1.5-1.574l0,0c0.822,0,1.5,0.705,1.5,1.574V540.396z"/>
</g>
<g>
	<path fill="#FFFEF5" d="M1080,541.445c0,0.869-0.678,1.574-1.5,1.574l0,0c-0.822,0-1.5-0.705-1.5-1.574v-22.044
		c0-0.869,0.678-1.574,1.5-1.574l0,0c0.822,0,1.5,0.705,1.5,1.574V541.445z"/>
</g>
<g>
	<path fill="#4573C4" d="M821,536.184c0,0.297-0.678,0.538-1.5,0.538l0,0c-0.822,0-1.5-0.241-1.5-0.538v-7.533
		c0-0.297,0.678-0.538,1.5-0.538l0,0c0.822,0,1.5,0.241,1.5,0.538V536.184z"/>
</g>
<g>
	<path fill="#4573C4" d="M843,536.184c0,0.297-0.678,0.538-1.5,0.538l0,0c-0.822,0-1.5-0.241-1.5-0.538v-7.533
		c0-0.297,0.678-0.538,1.5-0.538l0,0c0.822,0,1.5,0.241,1.5,0.538V536.184z"/>
</g>
<g>
	<path fill="#4573C4" d="M832,545.04c0,0.623-0.678,1.129-1.5,1.129l0,0c-0.822,0-1.5-0.506-1.5-1.129v-15.799
		c0-0.623,0.678-1.129,1.5-1.129l0,0c0.822,0,1.5,0.506,1.5,1.129V545.04z"/>
</g>
<g>
	<path fill="#305D9E" d="M484.907,853.5c0,2.509-3.016,4.5-6.737,4.5h-98.813c-3.721,0-6.737-1.991-6.737-4.5l0,0
		c0-2.51,3.016-4.5,6.737-4.5h98.813C481.891,849,484.907,850.99,484.907,853.5L484.907,853.5z"/>
</g>
<g>
	<path fill="#305D9E" d="M500.143,866.5c0,2.51-1.509,4.5-3.369,4.5h-49.406c-1.861,0-3.369-1.99-3.369-4.5l0,0
		c0-2.51,1.508-4.5,3.369-4.5h49.406C498.634,862,500.143,863.99,500.143,866.5L500.143,866.5z"/>
</g>
<g>
	<path fill="#305D9E" d="M142.907,849.5c0,2.509-3.016,4.5-6.737,4.5H37.356c-3.721,0-6.737-1.991-6.737-4.5l0,0
		c0-2.51,3.016-4.5,6.737-4.5h98.813C139.891,845,142.907,846.99,142.907,849.5L142.907,849.5z"/>
</g>
<g>
	<path fill="#305D9E" d="M158.143,862.5c0,2.51-1.509,4.5-3.369,4.5h-49.406c-1.861,0-3.369-1.99-3.369-4.5l0,0
		c0-2.51,1.508-4.5,3.369-4.5h49.406C156.634,858,158.143,859.99,158.143,862.5L158.143,862.5z"/>
</g>
<g>
	<path fill="#305D9E" d="M1360.906,846.5c0,2.509-3.016,4.5-6.736,4.5h-98.813c-3.722,0-6.737-1.991-6.737-4.5l0,0
		c0-2.51,3.016-4.5,6.737-4.5h98.813C1357.891,842,1360.906,843.99,1360.906,846.5L1360.906,846.5z"/>
</g>
<g>
	<path fill="#305D9E" d="M1376.143,859.5c0,2.51-1.509,4.5-3.369,4.5h-49.406c-1.861,0-3.369-1.99-3.369-4.5l0,0
		c0-2.51,1.508-4.5,3.369-4.5h49.406C1374.634,855,1376.143,856.99,1376.143,859.5L1376.143,859.5z"/>
</g>
<g>
	<path fill="#295384" d="M1115.906,838.5c0,2.509-3.016,4.5-6.736,4.5h-98.813c-3.722,0-6.737-1.991-6.737-4.5l0,0
		c0-2.51,3.016-4.5,6.737-4.5h98.813C1112.891,834,1115.906,835.99,1115.906,838.5L1115.906,838.5z"/>
</g>
<g>
	<path fill="#305D9E" d="M1131.143,851.5c0,2.51-1.509,4.5-3.369,4.5h-49.406c-1.861,0-3.369-1.99-3.369-4.5l0,0
		c0-2.51,1.508-4.5,3.369-4.5h49.406C1129.634,847,1131.143,848.99,1131.143,851.5L1131.143,851.5z"/>
</g>
<g>
	<path fill="#295384" d="M843.906,838.5c0,2.509-3.016,4.5-6.736,4.5h-98.813c-3.722,0-6.737-1.991-6.737-4.5l0,0
		c0-2.51,3.016-4.5,6.737-4.5h98.813C840.891,834,843.906,835.99,843.906,838.5L843.906,838.5z"/>
</g>
<g>
	<path fill="#305D9E" d="M859.143,851.5c0,2.51-2.502,4.5-5.588,4.5h-81.942c-3.087,0-5.588-1.99-5.588-4.5l0,0
		c0-2.51,2.501-4.5,5.588-4.5h81.942C856.641,847,859.143,848.99,859.143,851.5L859.143,851.5z"/>
</g>
<g>
	<path fill="#305D9E" d="M899.143,866.5c0,2.51-2.502,4.5-5.588,4.5h-81.942c-3.087,0-5.588-1.99-5.588-4.5l0,0
		c0-2.51,2.501-4.5,5.588-4.5h81.942C896.641,862,899.143,863.99,899.143,866.5L899.143,866.5z"/>
</g>
<g>
	<path fill="#295384" d="M914,884.5c0,2.51-1.369,4.5-3.059,4.5h-44.858c-1.689,0-3.059-1.99-3.059-4.5l0,0
		c0-2.51,1.369-4.5,3.059-4.5h44.858C912.631,880,914,881.99,914,884.5L914,884.5z"/>
</g>
</svg>
